<?xml version="1.0" encoding="utf-8"?>
<!-- Generator: Adobe Illustrator 15.0.0, SVG Export Plug-In . SVG Version: 6.00 Build 0)  -->
<!DOCTYPE svg PUBLIC "-//W3C//DTD SVG 1.1//EN" "http://www.w3.org/Graphics/SVG/1.1/DTD/svg11.dtd">
<svg version="1.1" id="Layer_1" xmlns="http://www.w3.org/2000/svg" xmlns:xlink="http://www.w3.org/1999/xlink" x="0px" y="0px"
	 width="81.658px" height="24.615px" viewBox="0 0 81.658 24.615" enable-background="new 0 0 81.658 24.615" xml:space="preserve">
<rect x="-0.295" y="-2.928" display="none" width="81.99" height="31.996"/>
<image display="none" overflow="visible" width="82" height="32" xlink:href="logo.png"  transform="matrix(0.9999 0 0 0.9999 -0.2949 -2.9277)">
</image>
<g display="none">
	<path display="inline" d="M36.251,12.668c0-3.26,2.451-5.459,5.633-5.459c2.31,0,3.655,1.25,4.398,2.579l-1.931,0.949
		c-0.442-0.854-1.394-1.535-2.468-1.535c-1.93,0-3.323,1.473-3.323,3.466c0,1.992,1.394,3.466,3.323,3.466
		c1.074,0,2.025-0.682,2.468-1.535l1.931,0.933c-0.743,1.314-2.089,2.596-4.398,2.596C38.702,18.127,36.251,15.911,36.251,12.668"/>
	<polygon display="inline" points="55.715,17.937 53.862,10.688 52.028,17.937 49.639,17.937 46.615,7.382 49.132,7.382 
		50.983,15.01 52.994,7.382 54.749,7.382 56.743,15.01 58.594,7.382 61.111,7.382 58.104,17.937 	"/>
	<path display="inline" d="M68.098,17.938l-2.071-3.75h-1.648v3.75h-2.247V7.383h4.938c2.199,0,3.56,1.439,3.56,3.403
		c0,1.85-1.187,2.863-2.326,3.133l2.39,4.019H68.098z M68.318,10.769c0-0.871-0.68-1.409-1.566-1.409h-2.374v2.848h2.374
		C67.639,12.208,68.318,11.672,68.318,10.769"/>
	<path display="inline" d="M71.626,12.668c0-3.26,2.453-5.459,5.634-5.459c2.31,0,3.655,1.25,4.398,2.579l-1.93,0.949
		c-0.444-0.854-1.395-1.535-2.469-1.535c-1.93,0-3.323,1.473-3.323,3.466c0,1.992,1.394,3.466,3.323,3.466
		c1.074,0,2.024-0.682,2.469-1.535l1.93,0.933c-0.743,1.314-2.089,2.596-4.398,2.596C74.079,18.127,71.626,15.911,71.626,12.668"/>
</g>
<g>
	<path fill="#FFFFFF" d="M9.627,23.04c-0.39,0.39-1.03,0.39-1.42,0l-8.022-8.021c-0.3,0.514-0.235,1.186,0.203,1.624l7.582,7.581
		c0.521,0.521,1.374,0.521,1.895,0l12.32-12.319c0.438-0.439,0.504-1.11,0.202-1.624L9.627,23.04z"/>
	<path fill="#FFFFFF" d="M15.552,10.958c-0.131,0.129-0.344,0.129-0.474,0l-0.474-0.475c-0.13-0.131-0.13-0.343,0-0.474l0.948-0.947
		c0.13-0.131,0.344-0.131,0.474,0l0.474,0.473c0.129,0.131,0.129,0.343,0,0.474L15.552,10.958z"/>
	<path fill="#FFFFFF" d="M13.419,13.089c-0.131,0.13-0.344,0.13-0.474,0l-0.474-0.474c-0.129-0.131-0.129-0.343,0-0.474l0.948-0.947
		c0.13-0.131,0.343-0.131,0.474,0l0.473,0.473c0.131,0.131,0.131,0.345,0,0.475L13.419,13.089z"/>
	<path fill="#FFFFFF" d="M11.287,15.222c-0.13,0.129-0.343,0.129-0.474,0l-0.474-0.475c-0.13-0.131-0.13-0.343,0-0.475l0.948-0.947
		c0.129-0.13,0.343-0.129,0.474,0l0.475,0.475c0.13,0.13,0.13,0.343,0,0.473L11.287,15.222z"/>
	<path fill="#FFFFFF" d="M9.154,17.353c-0.13,0.131-0.343,0.132-0.473,0L8.207,16.88c-0.13-0.131-0.13-0.344,0-0.475l0.947-0.947
		c0.131-0.13,0.344-0.13,0.474,0l0.475,0.475c0.13,0.129,0.13,0.343,0,0.473L9.154,17.353z"/>
	<path fill="#FFFFFF" d="M11.049,16.881c0.131-0.132,0.343-0.132,0.474,0l0.475,0.472c0.129,0.131,0.129,0.344,0,0.475l-0.949,0.947
		c-0.13,0.131-0.344,0.131-0.474,0l-0.474-0.474c-0.13-0.13-0.13-0.343,0-0.474L11.049,16.881z"/>
	<path fill="#FFFFFF" d="M15.314,12.615c0.13-0.129,0.343-0.131,0.473,0l0.474,0.474c0.13,0.13,0.13,0.344,0,0.473l-3.08,3.08
		c-0.13,0.13-0.343,0.131-0.474,0l-0.474-0.474c-0.131-0.13-0.131-0.344,0-0.474L15.314,12.615z"/>
	<path fill="#FFFFFF" d="M17.446,10.483c0.131-0.131,0.344-0.131,0.475,0l0.474,0.475c0.13,0.129,0.13,0.343,0,0.473l-0.949,0.948
		c-0.13,0.13-0.343,0.13-0.473,0l-0.474-0.474c-0.13-0.129-0.13-0.343,0-0.474L17.446,10.483z"/>
	<path fill="#FFFFFF" d="M21.23,1.468c-0.713-0.016-1.902,0.026-3.561-0.685c-3.317-1.421-4.266-0.474-4.266-0.474
		S11.901,1.813,9.91,3.803c0.23-0.163,1.319-0.728,4.215,0.514c0.606,0.26,1.149,0.418,1.628,0.517
		c0.553,0.15,0.317,0.817-0.229,0.682c-0.58-0.083-1.219-0.244-2.014-0.584c-2.896-1.242-3.985-0.675-4.215-0.513
		C8.832,4.883,8.349,5.365,7.857,5.856c0.23-0.164,1.32-0.728,4.216,0.513c0.605,0.26,1.148,0.42,1.628,0.517
		c0.554,0.152,0.317,0.817-0.229,0.683c-0.58-0.085-1.219-0.245-2.014-0.586C8.563,5.742,7.473,6.308,7.243,6.471
		C6.763,6.95,6.281,7.433,5.805,7.91c0.23-0.164,1.32-0.728,4.215,0.512c0.605,0.26,1.149,0.42,1.629,0.518
		c0.553,0.15,0.315,0.817-0.23,0.682c-0.579-0.084-1.218-0.244-2.014-0.585C6.511,7.796,5.421,8.359,5.19,8.523
		C4.694,9.019,4.211,9.503,3.753,9.96c0.231-0.163,1.32-0.727,4.216,0.514c0.605,0.259,1.148,0.418,1.628,0.517
		c0.553,0.152,0.316,0.817-0.23,0.683c-0.579-0.085-1.217-0.245-2.013-0.584c-2.894-1.242-3.985-0.678-4.215-0.514
		c-1.69,1.691-2.913,2.913-2.939,2.939c-0.24,0.24-0.159,0.596,0.216,0.633c0.658,0.002,1.631,0.195,3.038,0.851
		c3.554,1.66,4.739,0.476,4.739,0.476S21.47,2.194,21.567,2.098C21.777,1.887,21.756,1.465,21.23,1.468"/>
</g>
<g>
	<path fill="#FFFFFF" d="M35.449,12.006c0-3.535,2.629-5.92,6.042-5.92c2.478,0,3.919,1.357,4.719,2.797l-2.071,1.03
		c-0.478-0.925-1.494-1.663-2.647-1.663c-2.071,0-3.564,1.597-3.564,3.757c0,2.162,1.494,3.76,3.564,3.76
		c1.153,0,2.17-0.739,2.647-1.665l2.071,1.012c-0.8,1.423-2.241,2.815-4.719,2.815C38.079,17.929,35.449,15.523,35.449,12.006"/>
	<path fill="#FFFFFF" d="M46.857,16.107l1.321-1.903c0.798,0.841,2.035,1.561,3.596,1.561c1.342,0,1.969-0.6,1.969-1.27
		c0-1.989-6.515-0.599-6.515-4.907c0-1.907,1.629-3.486,4.291-3.486c1.799,0,3.294,0.55,4.411,1.597l-1.337,1.819
		c-0.917-0.857-2.142-1.251-3.293-1.251c-1.019,0-1.595,0.445-1.595,1.13c0,1.804,6.5,0.585,6.5,4.858
		c0,2.095-1.493,3.674-4.532,3.674C49.485,17.929,47.925,17.19,46.857,16.107"/>
	<path fill="#FFFFFF" d="M57.851,17.722V6.274h8.008v2.145H60.26v2.405h5.48v2.144h-5.48v2.607h5.599v2.146H57.851z M61.974,5.227
		h-1.511l2.275-2.47h1.986L61.974,5.227z"/>
	<path fill="#FFFFFF" d="M67.166,12.006c0-3.535,2.633-5.92,6.043-5.92c2.479,0,3.918,1.357,4.717,2.797l-2.069,1.03
		c-0.476-0.925-1.495-1.663-2.647-1.663c-2.072,0-3.565,1.597-3.565,3.757c0,2.162,1.493,3.76,3.565,3.76
		c1.152,0,2.172-0.739,2.647-1.665l2.069,1.012c-0.799,1.423-2.238,2.815-4.717,2.815C69.799,17.929,67.166,15.523,67.166,12.006"/>
</g>
</svg>
