<?xml version="1.0" standalone="no"?>
<!DOCTYPE svg PUBLIC "-//W3C//DTD SVG 20010904//EN"
 "http://www.w3.org/TR/2001/REC-SVG-20010904/DTD/svg10.dtd">
<svg version="1.0" xmlns="http://www.w3.org/2000/svg"
 width="260.000000pt" height="260.000000pt" viewBox="0 0 260.000000 260.000000"
 preserveAspectRatio="xMidYMid meet">
<metadata>
Created by potrace 1.11, written by Peter Selinger 2001-2013
</metadata>
<g transform="translate(0.000000,260.000000) scale(0.100000,-0.100000)"
fill="#000000" stroke="none">
<path d="M1614 2514 c-5 -1 -25 -5 -45 -8 -25 -4 -54 -23 -95 -62 -92 -87
-304 -296 -304 -300 0 -2 12 1 28 7 50 19 150 12 252 -18 30 -9 60 -18 65 -19
6 -2 46 -16 90 -33 44 -17 100 -36 125 -43 33 -10 46 -19 48 -35 2 -14 -3 -23
-17 -28 -37 -11 -89 2 -310 80 -145 52 -279 63 -340 30 -35 -19 -162 -150
-136 -140 77 29 217 9 385 -54 57 -22 125 -45 152 -51 56 -14 76 -33 58 -55
-24 -29 -101 -16 -272 49 -176 66 -321 86 -385 52 -36 -18 -174 -151 -148
-142 80 29 214 9 395 -59 63 -23 131 -46 150 -50 57 -12 72 -31 46 -58 -21
-20 -105 -5 -225 40 -151 57 -210 73 -291 79 -113 9 -142 -2 -230 -92 -41 -42
-64 -70 -50 -63 35 18 153 15 230 -5 35 -9 112 -34 170 -55 58 -22 122 -42
142 -46 48 -9 63 -27 48 -55 -9 -17 -17 -20 -48 -15 -54 8 -120 28 -272 81
-145 51 -250 64 -319 42 -24 -7 -87 -62 -194 -168 -132 -129 -158 -160 -153
-177 5 -17 18 -22 64 -27 79 -10 149 -30 274 -82 144 -59 243 -85 330 -86 81
0 143 19 175 55 17 19 370 364 648 632 553 534 705 685 705 697 0 4 -7 14 -16
22 -11 12 -35 16 -85 16 -38 0 -72 1 -76 2 -7 1 -98 22 -150 33 -12 3 -42 14
-67 24 -113 49 -307 96 -352 85z"/>
<path d="M1680 1574 c-33 -33 -54 -62 -52 -72 5 -22 62 -82 78 -82 20 0 134
110 134 129 0 23 -62 81 -85 80 -11 0 -45 -25 -75 -55z"/>
<path d="M2324 1403 c-56 -54 -216 -209 -355 -344 -777 -755 -849 -824 -879
-837 -45 -18 -80 1 -190 108 -226 220 -636 619 -677 659 -30 29 -48 40 -54 34
-14 -14 -18 -72 -7 -104 5 -14 108 -122 230 -240 121 -118 302 -293 400 -389
99 -96 190 -180 201 -187 47 -26 129 -13 168 26 16 16 467 454 634 616 81 78
574 556 612 593 34 34 48 93 30 135 l-12 27 -101 -97z"/>
<path d="M1877 1435 c-32 -30 -57 -63 -57 -74 0 -19 62 -81 81 -81 18 0 129
112 129 130 0 20 -61 80 -81 80 -9 0 -41 -25 -72 -55z"/>
<path d="M1468 1365 c-32 -31 -58 -63 -58 -72 0 -19 63 -83 82 -83 20 0 128
111 128 132 0 21 -58 77 -80 78 -8 0 -41 -25 -72 -55z"/>
<path d="M1548 1116 c-93 -89 -168 -166 -168 -169 0 -14 73 -87 87 -87 8 0 66
50 128 111 63 61 136 132 163 158 27 25 51 54 55 63 7 20 -56 88 -81 88 -10 0
-92 -74 -184 -164z"/>
<path d="M1247 1152 c-31 -32 -57 -62 -57 -68 0 -15 71 -84 87 -84 16 0 133
114 133 130 0 18 -68 80 -88 80 -10 0 -43 -26 -75 -58z"/>
<path d="M1037 948 c-34 -32 -57 -61 -57 -74 0 -22 58 -84 79 -84 19 0 131
111 131 130 0 20 -60 80 -81 80 -8 0 -40 -24 -72 -52z"/>
<path d="M1228 805 c-32 -31 -58 -64 -58 -74 0 -20 62 -81 82 -81 21 1 128
108 128 128 0 21 -60 82 -80 82 -8 0 -41 -25 -72 -55z"/>
</g>
</svg>
