<?xml version="1.0" standalone="no"?>
<!DOCTYPE svg PUBLIC "-//W3C//DTD SVG 1.1//EN" "http://www.w3.org/Graphics/SVG/1.1/DTD/svg11.dtd" >
<svg xmlns="http://www.w3.org/2000/svg">
<metadata>Generated by IcoMoon</metadata>
<defs>
<font id="icomoon" horiz-adv-x="1024">
<font-face units-per-em="1024" ascent="960" descent="-64" />
<missing-glyph horiz-adv-x="1024" />
<glyph unicode="&#x20;" horiz-adv-x="512" d="" />
<glyph unicode="&#xe900;" glyph-name="book" d="M896 832v-832h-672c-53.026 0-96 42.98-96 96s42.974 96 96 96h608v768h-640c-70.398 0-128-57.6-128-128v-768c0-70.4 57.602-128 128-128h768v896h-64zM224.056 128v0c-0.018-0.002-0.038 0-0.056 0-17.672 0-32-14.326-32-32s14.328-32 32-32c0.018 0 0.038 0.002 0.056 0.002v-0.002h607.89v64h-607.89z" />
<glyph unicode="&#xe901;" glyph-name="redo2" d="M576 711.628v248.372l384-384-384-384v253.824c-446.75 10.482-427.588-303.792-313.86-509.824-280.712 303.414-221.1 789.57 313.86 775.628z" />
<glyph unicode="&#xe902;" glyph-name="users" horiz-adv-x="1152" d="M768 189.388v52.78c70.498 39.728 128 138.772 128 237.832 0 159.058 0 288-192 288s-192-128.942-192-288c0-99.060 57.502-198.104 128-237.832v-52.78c-217.102-17.748-384-124.42-384-253.388h896c0 128.968-166.898 235.64-384 253.388zM327.196 164.672c55.31 36.15 124.080 63.636 199.788 80.414-15.054 17.784-28.708 37.622-40.492 59.020-30.414 55.234-46.492 116.058-46.492 175.894 0 86.042 0 167.31 30.6 233.762 29.706 64.504 83.128 104.496 159.222 119.488-16.914 76.48-61.94 126.75-181.822 126.75-192 0-192-128.942-192-288 0-99.060 57.502-198.104 128-237.832v-52.78c-217.102-17.748-384-124.42-384-253.388h279.006c14.518 12.91 30.596 25.172 48.19 36.672z" />
<glyph unicode="&#xe903;" glyph-name="bookmark" d="M192 960v-1024l320 320 320-320v1024z" />
<glyph unicode="&#xe904;" glyph-name="bookmarks" d="M256 832v-896l320 320 320-320v896zM768 960h-640v-896l64 64v768h576z" />
<glyph unicode="&#xe905;" glyph-name="star-full" d="M1024 562.95l-353.78 51.408-158.22 320.582-158.216-320.582-353.784-51.408 256-249.538-60.432-352.352 316.432 166.358 316.432-166.358-60.434 352.352 256.002 249.538z" />
<glyph unicode="&#xe906;" glyph-name="heart" d="M755.188 896c-107.63 0-200.258-87.554-243.164-179-42.938 91.444-135.578 179-243.216 179-148.382 0-268.808-120.44-268.808-268.832 0-301.846 304.5-380.994 512.022-679.418 196.154 296.576 511.978 387.206 511.978 679.418 0 148.392-120.43 268.832-268.812 268.832z" />
<glyph unicode="&#xe907;" glyph-name="pencil" d="M864 960c88.364 0 160-71.634 160-160 0-36.020-11.91-69.258-32-96l-64-64-224 224 64 64c26.742 20.090 59.978 32 96 32zM64 224l-64-288 288 64 592 592-224 224-592-592zM715.578 596.422l-448-448-55.156 55.156 448 448 55.156-55.156z" />
<glyph unicode="&#xe908;" glyph-name="image" d="M959.884 832c0.040-0.034 0.082-0.076 0.116-0.116v-767.77c-0.034-0.040-0.076-0.082-0.116-0.116h-895.77c-0.040 0.034-0.082 0.076-0.114 0.116v767.772c0.034 0.040 0.076 0.082 0.114 0.114h895.77zM960 896h-896c-35.2 0-64-28.8-64-64v-768c0-35.2 28.8-64 64-64h896c35.2 0 64 28.8 64 64v768c0 35.2-28.8 64-64 64v0zM832 672c0-53.020-42.98-96-96-96s-96 42.98-96 96 42.98 96 96 96 96-42.98 96-96zM896 128h-768v128l224 384 256-320h64l224 192z" />
<glyph unicode="&#xe909;" glyph-name="images" horiz-adv-x="1152" d="M1088 832h-64v64c0 35.2-28.8 64-64 64h-896c-35.2 0-64-28.8-64-64v-768c0-35.2 28.8-64 64-64h64v-64c0-35.2 28.8-64 64-64h896c35.2 0 64 28.8 64 64v768c0 35.2-28.8 64-64 64zM128 768v-640h-63.886c-0.040 0.034-0.082 0.076-0.114 0.116v767.77c0.034 0.040 0.076 0.082 0.114 0.114h895.77c0.040-0.034 0.082-0.076 0.116-0.116v-63.884h-768c-35.2 0-64-28.8-64-64v0zM1088 0.116c-0.034-0.040-0.076-0.082-0.116-0.116h-895.77c-0.040 0.034-0.082 0.076-0.114 0.116v767.77c0.034 0.040 0.076 0.082 0.114 0.114h895.77c0.040-0.034 0.082-0.076 0.116-0.116v-767.768zM960 608c0-53.020-42.98-96-96-96s-96 42.98-96 96 42.98 96 96 96 96-42.98 96-96zM1024 64h-768v128l224 384 256-320h64l224 192z" />
<glyph unicode="&#xe90a;" glyph-name="books" horiz-adv-x="1152" d="M224 832h-192c-17.6 0-32-14.4-32-32v-704c0-17.6 14.4-32 32-32h192c17.6 0 32 14.4 32 32v704c0 17.6-14.4 32-32 32zM192 640h-128v64h128v-64zM544 832h-192c-17.6 0-32-14.4-32-32v-704c0-17.6 14.4-32 32-32h192c17.6 0 32 14.4 32 32v704c0 17.6-14.4 32-32 32zM512 640h-128v64h128v-64zM765.088 782.52l-171.464-86.394c-15.716-7.918-22.096-27.258-14.178-42.976l287.978-571.548c7.918-15.718 27.258-22.098 42.976-14.178l171.464 86.392c15.716 7.92 22.096 27.26 14.178 42.974l-287.978 571.55c-7.92 15.718-27.26 22.1-42.976 14.18z" />
<glyph unicode="&#xe90b;" glyph-name="file-empty" d="M917.806 730.924c-22.212 30.292-53.174 65.7-87.178 99.704s-69.412 64.964-99.704 87.178c-51.574 37.82-76.592 42.194-90.924 42.194h-496c-44.112 0-80-35.888-80-80v-864c0-44.112 35.888-80 80-80h736c44.112 0 80 35.888 80 80v624c0 14.332-4.372 39.35-42.194 90.924zM785.374 785.374c30.7-30.7 54.8-58.398 72.58-81.374h-153.954v153.946c22.984-17.78 50.678-41.878 81.374-72.572zM896 16c0-8.672-7.328-16-16-16h-736c-8.672 0-16 7.328-16 16v864c0 8.672 7.328 16 16 16 0 0 495.956 0.002 496 0v-224c0-17.672 14.326-32 32-32h224v-624z" />
<glyph unicode="&#xe90c;" glyph-name="files-empty" d="M917.806 602.924c-22.21 30.292-53.174 65.7-87.178 99.704s-69.412 64.964-99.704 87.178c-51.574 37.82-76.592 42.194-90.924 42.194h-368c-44.114 0-80-35.888-80-80v-736c0-44.112 35.886-80 80-80h608c44.112 0 80 35.888 80 80v496c0 14.332-4.372 39.35-42.194 90.924zM785.374 657.374c30.7-30.7 54.8-58.398 72.58-81.374h-153.954v153.946c22.982-17.78 50.678-41.878 81.374-72.572v0zM896 16c0-8.672-7.328-16-16-16h-608c-8.672 0-16 7.328-16 16v736c0 8.672 7.328 16 16 16 0 0 367.956 0.002 368 0v-224c0-17.672 14.324-32 32-32h224v-496zM602.924 917.804c-51.574 37.822-76.592 42.196-90.924 42.196h-368c-44.112 0-80-35.888-80-80v-736c0-38.632 27.528-70.958 64-78.39v814.39c0 8.672 7.328 16 16 16h486.876c-9.646 7.92-19.028 15.26-27.952 21.804z" />
<glyph unicode="&#xe90d;" glyph-name="file-text2" d="M917.806 730.924c-22.212 30.292-53.174 65.7-87.178 99.704s-69.412 64.964-99.704 87.178c-51.574 37.82-76.592 42.194-90.924 42.194h-496c-44.112 0-80-35.888-80-80v-864c0-44.112 35.888-80 80-80h736c44.112 0 80 35.888 80 80v624c0 14.332-4.372 39.35-42.194 90.924zM785.374 785.374c30.7-30.7 54.8-58.398 72.58-81.374h-153.954v153.946c22.984-17.78 50.678-41.878 81.374-72.572zM896 16c0-8.672-7.328-16-16-16h-736c-8.672 0-16 7.328-16 16v864c0 8.672 7.328 16 16 16 0 0 495.956 0.002 496 0v-224c0-17.672 14.326-32 32-32h224v-624zM736 128h-448c-17.672 0-32 14.326-32 32s14.328 32 32 32h448c17.674 0 32-14.326 32-32s-14.326-32-32-32zM736 256h-448c-17.672 0-32 14.326-32 32s14.328 32 32 32h448c17.674 0 32-14.326 32-32s-14.326-32-32-32zM736 384h-448c-17.672 0-32 14.326-32 32s14.328 32 32 32h448c17.674 0 32-14.326 32-32s-14.326-32-32-32z" />
<glyph unicode="&#xe90e;" glyph-name="file-picture" d="M832 64h-640v128l192 320 263-320 185 128v-256zM832 480c0-53.020-42.98-96-96-96-53.022 0-96 42.98-96 96s42.978 96 96 96c53.020 0 96-42.98 96-96zM917.806 730.924c-22.212 30.292-53.174 65.7-87.178 99.704s-69.412 64.964-99.704 87.178c-51.574 37.82-76.592 42.194-90.924 42.194h-496c-44.112 0-80-35.888-80-80v-864c0-44.112 35.888-80 80-80h736c44.112 0 80 35.888 80 80v624c0 14.332-4.372 39.35-42.194 90.924zM785.374 785.374c30.7-30.7 54.8-58.398 72.58-81.374h-153.954v153.946c22.984-17.78 50.678-41.878 81.374-72.572zM896 16c0-8.672-7.328-16-16-16h-736c-8.672 0-16 7.328-16 16v864c0 8.672 7.328 16 16 16 0 0 495.956 0.002 496 0v-224c0-17.672 14.326-32 32-32h224v-624z" />
<glyph unicode="&#xe90f;" glyph-name="file-music" d="M917.806 730.924c-22.21 30.292-53.174 65.7-87.178 99.704s-69.412 64.964-99.704 87.178c-51.574 37.82-76.592 42.194-90.924 42.194h-496c-44.112 0-80-35.888-80-80v-864c0-44.112 35.886-80 80-80h736c44.112 0 80 35.888 80 80v624c0 14.332-4.372 39.35-42.194 90.924v0zM785.374 785.374c30.7-30.7 54.8-58.398 72.58-81.374h-153.954v153.946c22.982-17.78 50.678-41.878 81.374-72.572v0zM896 16c0-8.672-7.328-16-16-16h-736c-8.672 0-16 7.328-16 16v864c0 8.672 7.328 16 16 16 0 0 495.956 0.002 496 0v-224c0-17.672 14.324-32 32-32h224v-624zM756.288 568.748c-7.414 6.080-17.164 8.514-26.562 6.632l-320-64c-14.958-2.994-25.726-16.126-25.726-31.38v-236.876c-18.832 8.174-40.678 12.876-64 12.876-70.692 0-128-42.98-128-96s57.308-96 128-96 128 42.98 128 96v229.766l256 51.202v-133.842c-18.832 8.174-40.678 12.876-64 12.876-70.692 0-128-42.98-128-96s57.308-96 128-96 128 42.98 128 96v319.998c0 9.586-4.298 18.668-11.712 24.748z" />
<glyph unicode="&#xe910;" glyph-name="file-play" d="M384 576l320-224-320-224v448zM917.806 730.924c-22.212 30.292-53.174 65.7-87.178 99.704s-69.412 64.964-99.704 87.178c-51.574 37.82-76.592 42.194-90.924 42.194h-496c-44.112 0-80-35.888-80-80v-864c0-44.112 35.888-80 80-80h736c44.112 0 80 35.888 80 80v624c0 14.332-4.372 39.35-42.194 90.924zM785.374 785.374c30.7-30.7 54.8-58.398 72.58-81.374h-153.954v153.946c22.984-17.78 50.678-41.878 81.374-72.572zM896 16c0-8.672-7.328-16-16-16h-736c-8.672 0-16 7.328-16 16v864c0 8.672 7.328 16 16 16 0 0 495.956 0.002 496 0v-224c0-17.672 14.326-32 32-32h224v-624z" />
<glyph unicode="&#xe911;" glyph-name="file-zip" d="M917.806 730.924c-22.208 30.292-53.174 65.7-87.178 99.704s-69.412 64.964-99.704 87.178c-51.574 37.82-76.592 42.194-90.924 42.194h-496c-44.112 0-80-35.888-80-80v-864c0-44.112 35.884-80 80-80h736c44.112 0 80 35.888 80 80v624c0 14.332-4.372 39.35-42.194 90.924v0 0zM785.374 785.374c30.7-30.7 54.8-58.398 72.58-81.374h-153.954v153.946c22.98-17.78 50.678-41.878 81.374-72.572v0 0zM896 16c0-8.672-7.328-16-16-16h-736c-8.672 0-16 7.328-16 16v864c0 8.672 7.328 16 16 16 0 0 495.956 0.002 496 0v-224c0-17.672 14.322-32 32-32h224v-624zM256 896h128v-64h-128v64zM384 832h128v-64h-128v64zM256 768h128v-64h-128v64zM384 704h128v-64h-128v64zM256 640h128v-64h-128v64zM384 576h128v-64h-128v64zM256 512h128v-64h-128v64zM384 448h128v-64h-128v64zM256 112c0-26.4 21.6-48 48-48h160c26.4 0 48 21.6 48 48v160c0 26.4-21.6 48-48 48h-80v64h-128v-272zM448 192v-64h-128v64h128z" />
<glyph unicode="&#xe912;" glyph-name="copy" d="M640 704v256h-448l-192-192v-576h384v-256h640v768h-384zM192 869.49v-101.49h-101.49l101.49 101.49zM64 256v448h192v192h320v-192l-192-192v-256h-320zM576 613.49v-101.49h-101.49l101.49 101.49zM960 0h-512v448h192v192h320v-640z" />
<glyph unicode="&#xe913;" glyph-name="folder" d="M448 832l128-128h448v-704h-1024v832z" />
<glyph unicode="&#xe914;" glyph-name="folder-open" d="M832 0l192 512h-832l-192-512zM128 576l-128-576v832h288l128-128h416v-128z" />
<glyph unicode="&#xe915;" glyph-name="price-tags" horiz-adv-x="1280" d="M1232 960h-384c-26.4 0-63.274-15.274-81.942-33.942l-476.116-476.116c-18.668-18.668-18.668-49.214 0-67.882l412.118-412.118c18.668-18.668 49.214-18.668 67.882 0l476.118 476.118c18.666 18.666 33.94 55.54 33.94 81.94v384c0 26.4-21.6 48-48 48zM992 576c-53.020 0-96 42.98-96 96s42.98 96 96 96 96-42.98 96-96-42.98-96-96-96zM128 416l544 544h-80c-26.4 0-63.274-15.274-81.942-33.942l-476.116-476.116c-18.668-18.668-18.668-49.214 0-67.882l412.118-412.118c18.668-18.668 49.214-18.668 67.882 0l30.058 30.058-416 416z" />
<glyph unicode="&#xe916;" glyph-name="envelop" d="M928 832h-832c-52.8 0-96-43.2-96-96v-640c0-52.8 43.2-96 96-96h832c52.8 0 96 43.2 96 96v640c0 52.8-43.2 96-96 96zM398.74 409.628l-270.74-210.892v501.642l270.74-290.75zM176.38 704h671.24l-335.62-252-335.62 252zM409.288 398.302l102.712-110.302 102.71 110.302 210.554-270.302h-626.528l210.552 270.302zM625.26 409.628l270.74 290.75v-501.642l-270.74 210.892z" />
<glyph unicode="&#xe917;" glyph-name="location" d="M512 960c-176.732 0-320-143.268-320-320 0-320 320-704 320-704s320 384 320 704c0 176.732-143.27 320-320 320zM512 448c-106.040 0-192 85.96-192 192s85.96 192 192 192 192-85.96 192-192-85.96-192-192-192z" />
<glyph unicode="&#xe918;" glyph-name="alarm" d="M512 832c-247.424 0-448-200.576-448-448s200.576-448 448-448 448 200.576 448 448-200.576 448-448 448zM512 24c-198.824 0-360 161.178-360 360 0 198.824 161.176 360 360 360 198.822 0 360-161.176 360-360 0-198.822-161.178-360-360-360zM934.784 672.826c16.042 28.052 25.216 60.542 25.216 95.174 0 106.040-85.96 192-192 192-61.818 0-116.802-29.222-151.92-74.596 131.884-27.236 245.206-105.198 318.704-212.578v0zM407.92 885.404c-35.116 45.374-90.102 74.596-151.92 74.596-106.040 0-192-85.96-192-192 0-34.632 9.174-67.122 25.216-95.174 73.5 107.38 186.822 185.342 318.704 212.578zM512 384v256h-64v-320h256v64z" />
<glyph unicode="&#xe919;" glyph-name="bell2" d="M1025.5 160c0 288-256 224-256 448 0 18.56-1.788 34.42-5.048 47.928-16.83 113.018-92.156 203.72-189.772 231.36 0.866 3.948 1.32 8.032 1.32 12.21 0 33.278-28.8 60.502-64 60.502s-64-27.224-64-60.5c0-4.18 0.456-8.264 1.32-12.21-109.47-30.998-190.914-141.298-193.254-273.442-0.040-1.92-0.066-3.864-0.066-5.846 0-224.002-256-160.002-256-448.002 0-76.226 170.59-139.996 398.97-156.080 21.524-40.404 64.056-67.92 113.030-67.92s91.508 27.516 113.030 67.92c228.38 16.084 398.97 79.854 398.97 156.080 0 0.228-0.026 0.456-0.028 0.682l1.528-0.682zM826.246 105.904c-54.23-14.47-118.158-24.876-186.768-30.648-5.704 65.418-60.582 116.744-127.478 116.744s-121.774-51.326-127.478-116.744c-68.608 5.772-132.538 16.178-186.768 30.648-74.63 19.914-110.31 42.19-123.368 54.096 13.058 11.906 48.738 34.182 123.368 54.096 86.772 23.152 198.372 35.904 314.246 35.904s227.474-12.752 314.246-35.904c74.63-19.914 110.31-42.19 123.368-54.096-13.058-11.906-48.738-34.182-123.368-54.096z" />
<glyph unicode="&#xe91a;" glyph-name="drawer" d="M1016.988 307.99l-256 320c-6.074 7.592-15.266 12.010-24.988 12.010h-448c-9.72 0-18.916-4.418-24.988-12.010l-256-320c-4.538-5.674-7.012-12.724-7.012-19.99v-288c0-35.346 28.654-64 64-64h896c35.348 0 64 28.654 64 64v288c0 7.266-2.472 14.316-7.012 19.99zM960 256h-224l-128-128h-192l-128 128h-224v20.776l239.38 299.224h417.24l239.38-299.224v-20.776zM736 448h-448c-17.672 0-32 14.328-32 32s14.328 32 32 32h448c17.674 0 32-14.328 32-32s-14.326-32-32-32zM800 320h-576c-17.672 0-32 14.326-32 32s14.328 32 32 32h576c17.674 0 32-14.326 32-32s-14.326-32-32-32z" />
<glyph unicode="&#xe91b;" glyph-name="pie-chart" d="M448 384v448c-247.424 0-448-200.576-448-448s200.576-448 448-448 448 200.576 448 448c0 72.034-17.028 140.084-47.236 200.382l-400.764-200.382zM912.764 712.382c-73.552 146.816-225.374 247.618-400.764 247.618v-448l400.764 200.382z" />
<glyph unicode="&#xe91c;" glyph-name="stats-dots" d="M128 64h896v-128h-1024v1024h128zM288 128c-53.020 0-96 42.98-96 96s42.98 96 96 96c2.828 0 5.622-0.148 8.388-0.386l103.192 171.986c-9.84 15.070-15.58 33.062-15.58 52.402 0 53.020 42.98 96 96 96s96-42.98 96-96c0-19.342-5.74-37.332-15.58-52.402l103.192-171.986c2.766 0.238 5.56 0.386 8.388 0.386 2.136 0 4.248-0.094 6.35-0.23l170.356 298.122c-10.536 15.408-16.706 34.036-16.706 54.11 0 53.020 42.98 96 96 96s96-42.98 96-96c0-53.020-42.98-96-96-96-2.14 0-4.248 0.094-6.35 0.232l-170.356-298.124c10.536-15.406 16.706-34.036 16.706-54.11 0-53.020-42.98-96-96-96s-96 42.98-96 96c0 19.34 5.74 37.332 15.578 52.402l-103.19 171.984c-2.766-0.238-5.56-0.386-8.388-0.386s-5.622 0.146-8.388 0.386l-103.192-171.986c9.84-15.068 15.58-33.060 15.58-52.4 0-53.020-42.98-96-96-96z" />
<glyph unicode="&#xe91d;" glyph-name="stats-bars" d="M0 128h1024v-128h-1024zM128 384h128v-192h-128zM320 640h128v-448h-128zM512 448h128v-256h-128zM704 832h128v-640h-128z" />
<glyph unicode="&#xe91e;" glyph-name="meter" d="M512 896c282.77 0 512-229.23 512-512 0-192.792-106.576-360.666-264.008-448h-495.984c-157.432 87.334-264.008 255.208-264.008 448 0 282.77 229.23 512 512 512zM801.914 94.086c77.438 77.44 120.086 180.398 120.086 289.914h-90v64h85.038c-7.014 44.998-21.39 88.146-42.564 128h-106.474v64h64.284c-9.438 11.762-19.552 23.096-30.37 33.914-46.222 46.22-101.54 80.038-161.914 99.798v-69.712h-64v85.040c-20.982 3.268-42.36 4.96-64 4.96s-43.018-1.69-64-4.96v-85.040h-64v69.712c-60.372-19.76-115.692-53.576-161.914-99.798-10.818-10.818-20.932-22.152-30.37-33.914h64.284v-64h-106.476c-21.174-39.854-35.552-83.002-42.564-128h85.040v-64h-90c0-109.516 42.648-212.474 120.086-289.914 10.71-10.71 21.924-20.728 33.56-30.086h192.354l36.572 512h54.856l36.572-512h192.354c11.636 9.358 22.852 19.378 33.56 30.086z" />
<glyph unicode="&#xe91f;" glyph-name="clipboard" d="M928 832h-288c0 70.692-57.306 128-128 128-70.692 0-128-57.308-128-128h-288c-17.672 0-32-14.328-32-32v-832c0-17.674 14.328-32 32-32h832c17.674 0 32 14.326 32 32v832c0 17.672-14.326 32-32 32zM512 896c35.346 0 64-28.654 64-64s-28.654-64-64-64c-35.346 0-64 28.654-64 64s28.654 64 64 64zM896 0h-768v768h128v-96c0-17.672 14.328-32 32-32h448c17.674 0 32 14.328 32 32v96h128v-768zM448 101.49l-205.254 237.254 58.508 58.51 146.746-114.744 274.742 242.744 58.514-58.508z" />
<glyph unicode="&#xe920;" glyph-name="volume-medium" d="M719.53 128.47c-12.286 0-24.566 4.686-33.942 14.056-18.744 18.744-18.744 49.136 0 67.882 131.006 131.006 131.006 344.17 0 475.176-18.744 18.746-18.744 49.138 0 67.882 18.744 18.742 49.138 18.744 67.882 0 81.594-81.59 126.53-190.074 126.53-305.466 0-115.39-44.936-223.876-126.53-305.47-9.372-9.374-21.656-14.060-33.94-14.060v0zM549.020 218.98c-12.286 0-24.566 4.686-33.942 14.058-18.746 18.746-18.746 49.134 0 67.88 81.1 81.1 81.1 213.058 0 294.156-18.746 18.746-18.746 49.138 0 67.882s49.136 18.744 67.882 0c118.53-118.53 118.53-311.392 0-429.922-9.372-9.368-21.656-14.054-33.94-14.054zM416.006 0c-8.328 0-16.512 3.25-22.634 9.374l-246.626 246.626h-114.746c-17.672 0-32 14.326-32 32v320c0 17.672 14.328 32 32 32h114.746l246.626 246.628c9.154 9.154 22.916 11.89 34.874 6.936 11.958-4.952 19.754-16.622 19.754-29.564v-832c0-12.944-7.796-24.612-19.754-29.564-3.958-1.64-8.118-2.436-12.24-2.436z" />
<glyph unicode="&#xe921;" glyph-name="share" d="M256 320c0 0 58.824 192 384 192v-192l384 256-384 256v-192c-256 0-384-159.672-384-320zM704 192h-576v384h125.876c10.094 11.918 20.912 23.334 32.488 34.18 43.964 41.19 96.562 72.652 156.114 93.82h-442.478v-640h832v268.624l-128-85.334v-55.29z" />
<glyph unicode="&#xe922;" glyph-name="mail2" d="M853.342 960h-682.656c-93.874 0-170.686-76.81-170.686-170.69v-682.622c0-93.938 76.812-170.688 170.686-170.688h682.656c93.876 0 170.658 76.75 170.658 170.69v682.62c0 93.88-76.782 170.69-170.658 170.69zM853.342 832c7.988 0 15.546-2.334 22.020-6.342l-363.362-300.404-363.354 300.4c6.478 4.010 14.044 6.346 22.040 6.346h682.656zM170.686 64c-1.924 0-3.82 0.146-5.684 0.408l225.626 312.966-29.256 29.254-233.372-233.37v611.138l384-464.396 384 464.394v-611.136l-233.372 233.37-29.254-29.254 225.628-312.968c-1.858-0.26-3.746-0.406-5.662-0.406h-682.654z" />
<glyph unicode="&#xe923;" glyph-name="file-pdf" d="M842.012 370.52c-13.648 13.446-43.914 20.566-89.972 21.172-31.178 0.344-68.702-2.402-108.17-7.928-17.674 10.198-35.892 21.294-50.188 34.658-38.462 35.916-70.568 85.772-90.576 140.594 1.304 5.12 2.414 9.62 3.448 14.212 0 0 21.666 123.060 15.932 164.666-0.792 5.706-1.276 7.362-2.808 11.796l-1.882 4.834c-5.894 13.592-17.448 27.994-35.564 27.208l-10.916 0.344c-20.202 0-36.664-10.332-40.986-25.774-13.138-48.434 0.418-120.892 24.98-214.738l-6.288-15.286c-17.588-42.876-39.63-86.060-59.078-124.158l-2.528-4.954c-20.46-40.040-39.026-74.028-55.856-102.822l-17.376-9.188c-1.264-0.668-31.044-16.418-38.028-20.644-59.256-35.38-98.524-75.542-105.038-107.416-2.072-10.17-0.53-23.186 10.014-29.212l16.806-8.458c7.292-3.652 14.978-5.502 22.854-5.502 42.206 0 91.202 52.572 158.698 170.366 77.93 25.37 166.652 46.458 244.412 58.090 59.258-33.368 132.142-56.544 178.142-56.544 8.168 0 15.212 0.78 20.932 2.294 8.822 2.336 16.258 7.368 20.792 14.194 8.926 13.432 10.734 31.932 8.312 50.876-0.72 5.622-5.21 12.574-10.068 17.32zM211.646 145.952c7.698 21.042 38.16 62.644 83.206 99.556 2.832 2.296 9.808 8.832 16.194 14.902-47.104-75.124-78.648-105.066-99.4-114.458zM478.434 760.314c13.566 0 21.284-34.194 21.924-66.254s-6.858-54.56-16.158-71.208c-7.702 24.648-11.426 63.5-11.426 88.904 0 0-0.566 48.558 5.66 48.558v0zM398.852 322.506c9.45 16.916 19.282 34.756 29.33 53.678 24.492 46.316 39.958 82.556 51.478 112.346 22.91-41.684 51.444-77.12 84.984-105.512 4.186-3.542 8.62-7.102 13.276-10.65-68.21-13.496-127.164-29.91-179.068-49.862v0zM828.902 326.348c-4.152-2.598-16.052-4.1-23.708-4.1-24.708 0-55.272 11.294-98.126 29.666 16.468 1.218 31.562 1.838 45.102 1.838 24.782 0 32.12 0.108 56.35-6.072 24.228-6.18 24.538-18.734 20.382-21.332v0zM917.806 730.924c-22.21 30.292-53.174 65.7-87.178 99.704s-69.412 64.964-99.704 87.178c-51.574 37.82-76.592 42.194-90.924 42.194h-496c-44.112 0-80-35.888-80-80v-864c0-44.112 35.886-80 80-80h736c44.112 0 80 35.888 80 80v624c0 14.332-4.372 39.35-42.194 90.924v0zM785.374 785.374c30.7-30.7 54.8-58.398 72.58-81.374h-153.954v153.946c22.982-17.78 50.678-41.878 81.374-72.572v0zM896 16c0-8.672-7.328-16-16-16h-736c-8.672 0-16 7.328-16 16v864c0 8.672 7.328 16 16 16 0 0 495.956 0.002 496 0v-224c0-17.672 14.324-32 32-32h224v-624z" />
<glyph unicode="&#xe924;" glyph-name="libreoffice" d="M534.626 937.372c-12.444 12.444-37.026 22.628-54.626 22.628h-384c-17.6 0-32-14.4-32-32v-960c0-17.6 14.4-32 32-32h768c17.6 0 32 14.4 32 32v576c0 17.6-10.182 42.182-22.626 54.626l-338.748 338.746zM832 0h-704v896h351.158c2.916-0.48 8.408-2.754 10.81-4.478l337.556-337.554c1.722-2.402 3.996-7.894 4.476-10.81v-543.158zM864 960h-192c-17.6 0-21.818-10.182-9.374-22.626l210.746-210.746c12.446-12.446 22.628-8.228 22.628 9.372v192c0 17.6-14.4 32-32 32z" />
<glyph unicode="&#xe925;" glyph-name="calendar2" d="M320 576h128v-128h-128zM512 576h128v-128h-128zM704 576h128v-128h-128zM128 192h128v-128h-128zM320 192h128v-128h-128zM512 192h128v-128h-128zM320 384h128v-128h-128zM512 384h128v-128h-128zM704 384h128v-128h-128zM128 384h128v-128h-128zM832 960v-64h-128v64h-448v-64h-128v64h-128v-1024h960v1024h-128zM896 0h-832v704h832v-704z" />
<glyph unicode="&#xe926;" glyph-name="newspaper2" d="M896 704v128h-896v-704c0-35.346 28.654-64 64-64h864c53.022 0 96 42.978 96 96v544h-128zM832 128h-768v640h768v-640zM128 640h640v-64h-640zM512 512h256v-64h-256zM512 384h256v-64h-256zM512 256h192v-64h-192zM128 512h320v-320h-320z" />
<glyph unicode="&#xe927;" glyph-name="cwrc_iconography__citation" d="M780.732 498.278v108.442h-27.238v130.492h-257.604l-56.32 45.875h-169.028v-130.458h-27.238v-154.317h-30.345v-385.331h598.084v385.297h-30.31zM325.222 728.337h89.498l56.32-45.807h227.703v-75.81h-204.663l-62.703 45.875h-106.155v75.742zM304.23 591.667h99.499l62.737-45.875h253.338v-47.548h-415.573v93.423zM647.1 264.875h-270.165v81.476h270.165v-81.476z" />
<glyph unicode="&#xe938;" d="M829.608 573.673c-7.056 8.881-17.762 13.964-29.026 13.964h-37.236c0 20.573-16.663 37.236-37.236 37.236h-37.236v37.236c0 20.573-16.663 37.236-37.236 37.236h-446.836c-20.573 0-37.236-16.663-37.236-37.236v-446.836c0-20.573 16.663-37.236 37.236-37.236h521.309c17.464 0 32.582 12.139 36.361 29.156l74.473 335.127c0.596 2.681 0.875 5.399 0.875 8.099v0.428c-0.093 8.248-2.904 16.272-8.211 22.826zM317.384 558.48c0 0-75.348-340.527-75.348-343.208h-37.236v446.836h446.836v-37.236h-37.236c-20.573 0-37.236-16.663-37.236-37.236h-223.418c-17.464 0-32.582-12.139-36.361-29.156zM664.502 251.206c-4.357-5.455-10.836-8.211-17.315-8.211-4.952 0-9.961 1.601-14.113 5.027l-58.759 47.998c-5.083 4.152-7.782 10.11-8.080 16.216l-7.782 6.256c-20.219-17.743-46.117-27.778-73.523-27.778-25.674 0-50.772 8.937-70.619 25.172-47.718 38.986-54.831 109.456-15.863 157.249 21.318 26.028 52.876 41.016 86.556 41.016 25.674 0 50.772-8.955 70.619-25.172 23.124-18.897 37.534-45.67 40.513-75.348 2.625-25.898-3.705-51.349-17.892-72.723l6.833-5.604c6.032 0.95 12.437-0.503 17.52-4.729l58.759-47.923c9.551-7.894 11.003-21.932 3.146-31.446z" />
<glyph unicode="&#xe939;" glyph-name="folder-plus" d="M576 704l-128 128h-448v-832h1024v704h-448zM704 256h-128v-128h-128v128h-128v128h128v128h128v-128h128v-128z" />
<glyph unicode="&#xe93a;" glyph-name="cwrc-iconography_organization-eap2" d="M586.718 537.668v-328.841h149.47v328.841h-149.47zM646.519 268.629h-29.901v29.901h29.901v-29.901zM646.519 328.397h-29.901v29.935h29.901v-29.935zM646.519 388.198h-29.901v29.901h29.901v-29.901zM646.519 448h-29.901v29.867h29.901v-29.867zM706.287 268.629h-29.867v29.901h29.867v-29.901zM706.287 328.397h-29.867v29.935h29.867v-29.935zM706.287 388.198h-29.867v29.901h29.867v-29.901zM706.287 448h-29.867v29.867h29.867v-29.867zM526.95 477.867h-29.901v89.702l-29.867 59.802h-29.901v59.767h-29.901v-59.767h-29.969l-29.833-59.802v-89.702h-29.901l-29.901-29.867v-239.172h269.073v239.172l-29.901 29.867zM437.282 567.569h29.901v-29.901h-29.901v29.901zM377.481 567.569h29.901v-29.901h-29.901v29.901zM377.481 268.629h-29.901v29.901h29.901v-29.901zM377.481 328.397h-29.901v29.935h29.901v-29.935zM377.481 388.198h-29.901v29.901h29.901v-29.901zM377.481 507.802h29.901v-29.935h-29.901v29.935zM437.282 268.629h-29.901v29.901h29.901v-29.901zM437.282 328.397h-29.901v29.935h29.901v-29.935zM437.282 388.198h-29.901v29.901h29.901v-29.901zM437.282 507.802h29.901v-29.935h-29.901v29.935zM497.050 268.629h-29.867v29.901h29.867v-29.901zM497.050 328.397h-29.867v29.935h29.867v-29.935zM497.050 388.198h-29.867v29.901h29.867v-29.901z" />
<glyph unicode="&#xe93b;" glyph-name="cwrc-iconography_place-eap2" d="M512 703.010c-60.416 0-151.006-31.881-151.006-159.403 0-63.727 120.798-286.857 151.006-350.618 30.208 63.761 151.006 286.891 151.006 350.618 0 127.522-90.59 159.403-151.006 159.403zM512 494.524c-30.857 0-55.876 24.986-55.876 55.876 0 30.822 24.986 55.842 55.876 55.842s55.808-24.986 55.808-55.842c0-30.857-24.951-55.876-55.808-55.876z" />
<glyph unicode="&#xe93c;" glyph-name="cwrc-iconography_other-locked2" d="M706.15 516.301v60.314c0 105.574-87.074 191.386-194.15 191.386s-194.15-85.845-194.15-191.386v-60.314h-43.11v-388.301h474.522v388.301h-43.11zM542.071 214.289h-71.475l18.193 99.089c-10.65 6.076-18.193 17.101-18.193 30.345 0 19.797 16.009 35.669 35.738 35.669s35.738-15.872 35.738-35.669c0-13.244-7.543-24.269-18.193-30.345l18.193-99.089zM619.861 516.301h-215.723v60.314c0 57.003 49.391 105.199 107.861 105.199 58.402 0 107.861-48.196 107.861-105.199v-60.314z" />
<glyph unicode="&#xe93d;" glyph-name="cwrc-iconography_person-eap2" d="M714.957 469.47c6.076 41.097 6.861 82.193-6.144 122.061-23.962 73.557-70.178 126.191-148.139 142.78-26.761 5.7-55.603 3.755-83.285 2.321-16.35-0.819-33.69-4.813-48.367-12.015-73.523-36.113-114.927-95.949-122.197-177.425-2.662-29.798 0.58-60.143 1.092-90.453-13.107-1.502-17.886-5.257-16.077-21.197 2.287-20.002 6.519-40.004 12.22-59.324 5.325-17.954 15.565-33.28 34.884-37.888 13.244-65.775 45.943-118.101 100.147-155.819 45.534-31.71 93.184-33.178 139.981-2.458 52.087 34.167 86.733 81.613 101.786 142.473 2.321 9.421 3.482 17.886 15.258 20.958 4.983 1.297 9.66 7.1 12.834 11.947 16.35 25.088 23.245 53.146 23.484 82.807 0.102 11.196-4.335 19.627-19.49 17.988 0.853 5.393 1.434 9.353 2.014 13.244z" />
<glyph unicode="&#xe93e;" glyph-name="cwrc-iconography_starred-project2" d="M436.565 521.079l-229.615-4.71 183.023-138.684-66.492-219.75 188.518 131.106 188.45-131.106-66.458 219.75 182.989 138.684-229.615 4.71-75.401 216.951-75.401-216.951z" />
<glyph unicode="&#xe93f;" glyph-name="cwrc-iconography_user-locked2" d="M706.15 516.301v60.314c0 105.574-87.074 191.386-194.15 191.386s-194.15-85.845-194.15-191.386v-60.314h-43.11v-388.301h474.522v388.301h-43.11zM542.071 214.289h-71.475l18.193 99.089c-10.65 6.076-18.193 17.101-18.193 30.345 0 19.797 16.009 35.669 35.738 35.669s35.738-15.872 35.738-35.669c0-13.244-7.543-24.269-18.193-30.345l18.193-99.089zM619.861 516.301h-215.723v60.314c0 57.003 49.391 105.199 107.861 105.199 58.402 0 107.861-48.196 107.861-105.199v-60.314z" />
<glyph unicode="&#xe940;" glyph-name="cwrc-iconography_content-model2" d="M593.681 789.333h-359.014v-682.667h554.667v486.912l-195.652 195.755zM524.595 592.828c-2.697-16.657-6.178-35.396-8.533-54.272-0.785-6.281-0.922-14.268 2.185-19.183 20.685-32.427 42.428-64.273 63.693-96.324 5.461-8.226 12.22-9.25 22.050-8.192 19.183 2.048 39.014 3.755 58.061 1.536 25.395-3.038 32.154-20.582 18.944-42.325-11.81-19.388-30.857-27.204-52.668-18.398-13.619 5.495-26.453 13.995-37.99 23.245-7.339 5.871-13.449 7.714-21.879 4.915-37.478-12.254-75.093-24.064-112.333-36.966-5.53-1.911-10.65-7.885-13.858-13.278-9.967-16.213-18.159-33.485-28.467-49.493-6.588-10.172-14.916-19.558-23.757-27.819-12.834-11.981-25.771-12.902-36.966-4.813-14.541 10.581-21.333 27.034-13.653 41.609 6.349 12.083 15.36 23.825 25.941 32.324 13.961 11.264 30.071 20.378 46.251 28.297 11.776 5.803 19.695 12.834 23.996 25.429 15.189 44.612 31.471 88.849 46.285 133.564 2.389 7.27 0.683 16.623-1.229 24.542-4.949 20.173-12.663 39.799-15.94 60.211-1.707 10.752 1.707 23.484 6.281 33.758 4.915 10.991 16.35 15.838 28.638 14.097 12.902-1.843 19.627-11.23 22.153-23.006 1.946-8.841 1.809-18.057 2.799-29.457zM463.497 379.597c31.744 9.796 62.874 19.422 93.491 28.945-18.842 27.546-37.137 54.272-55.228 80.691-12.663-36.25-25.327-72.533-38.263-109.636zM372.292 271.428c12.083 16.247 23.723 31.949 35.396 47.65-1.468 1.399-2.935 2.799-4.403 4.198-12.151-10.138-24.815-19.831-36.352-30.652-6.349-5.939-7.168-13.483 5.359-21.197zM614.912 392.806c24.201-19.319 36.318-19.149 46.046 0-14.916 0-28.945 0-46.046 0zM495.411 578.765c0 13.858 0 27.716 0 41.574-1.263 0-2.56 0-3.823-0.034-6.827-14.199-1.741-28.16 3.823-41.54z" />
<glyph unicode="&#xe941;" glyph-name="cwrc-iconography_internet-archive2" d="M770.833 652.698c-23.757 0-203.571-2.253-258.833-69.257-55.296 67.004-235.076 69.257-258.867 69.257h-16.111v-388.13h32.29l0.102-32.358h16.145c13.141 0 28.945 0.785 45.807 1.638 18.671 0.922 38.639 1.946 57.685 1.946 48.026 0 74.479-6.997 74.479-19.797v-16.111h96.973v16.111c0 12.8 26.419 19.797 74.513 19.797 19.046 0 39.014-0.99 57.685-1.946 16.828-0.819 32.631-1.638 45.807-1.638h16.145v32.358h32.324v388.13h-16.145zM560.469 323.857v215.654c0 11.674 30.276 44.476 161.894 48.299v-242.62c-54.716-0.683-116.838-4.574-161.894-21.333zM339.593 585.66c105.677-7.543 121.344-32.427 123.153-42.735l0.717-219.068c-45.022 16.725-107.179 20.617-161.86 21.333v242.586c9.489-0.307 18.398-0.785 26.829-1.297l5.291-0.375z" />
<glyph unicode="&#xe942;" glyph-name="cwrc-iconography_collection2" d="M594.637 742.81h-157.662v-102.4h-119.433v-102.434h-119.501v-360.414h450.492v102.4h119.467v102.4h119.467v300.339h-240.265l-52.565 60.109zM597.47 228.625h-348.365v258.287h68.437v-206.916h279.927v-51.371zM716.937 331.025h-348.331v258.287h68.369v-206.985h279.962v-51.302zM836.403 433.425h-348.365v258.321h83.422l37.342-42.633 15.223-17.476h212.378v-198.212z" />
<glyph unicode="&#xe943;" glyph-name="cwrc-iconography_object2" d="M511.966 462.609l-291.601 145.783v-320.819l291.601-145.783 291.669 145.783v320.785l-291.669-145.749zM511.966 754.244l-291.601-145.852v-58.266l291.601 145.783 291.669-145.783v58.266l-291.669 145.852z" />
<glyph unicode="&#xe944;" glyph-name="cwrc-iconography_media-text2" d="M390.451 187.392v30.686c29.696 0.887 47.514 2.833 53.043 5.803 5.598 3.038 9.353 7.885 11.298 14.848 2.765 10.718 4.096 42.94 4.096 96.529v223.13c0 60.86-0.307 94.857-1.092 102.059h-53.316c-26.726 0-50.415-0.785-70.793-2.594-8.158-0.614-12.766-1.638-14.131-2.935-1.707-1.502-3.277-5.871-4.369-13.005-3.243-17.34-5.052-36.898-5.564-58.47h-30.993c-1.024 51.029-1.57 79.531-1.911 86.050-0.58 10.854-1.98 22.596-3.652 35.43l3.413 3.652c11.639-1.297 23.927-2.185 37.137-2.628 21.299-0.717 62.293-0.99 123.153-0.99h150.391c62.498 0 104.277 0.307 125.474 0.99 11.366 0.478 22.972 1.331 34.611 2.662l3.686-3.686c-2.082-15.326-3.55-28.467-4.028-40.038-0.341-1.946-0.819-29.047-1.536-81.476h-30.993c-0.444 19.285-2.014 37.82-4.71 55.535-1.502 8.806-3.14 14.165-4.983 15.974-1.434 1.263-5.359 2.219-11.844 2.56-20.378 2.014-44.783 2.97-73.318 2.97h-53.316c-0.751-8.704-1.195-42.735-1.195-102.059v-223.13c0-53.589 1.365-85.914 4.164-96.768 1.741-6.485 5.495-11.264 11.196-14.336 5.632-3.174 23.45-5.154 53.214-6.076v-30.686c-48.060 2.321-88.678 3.311-121.617 3.311-35.226 0-75.776-0.956-121.515-3.311z" />
<glyph unicode="&#xe945;" glyph-name="cwrc-iconography_media-critical-edition2" d="M597.948 772.642h-359.014v-682.667h554.667v486.912l-195.652 195.755zM708.267 175.309h-384v512h238.319l17.681-17.613v-110.455h110.353l17.647-17.545v-366.387zM499.063 452.642h-298.633v-42.735h298.633v42.735zM587.605 320.444h-298.633v-42.735h298.633v42.735zM404.173 584.841h-298.633v-42.667h298.633v42.667z" />
<glyph unicode="&#xe946;" glyph-name="cwrc-iconography_media-audio2" d="M561.869 440.149c0-14.814-7.851-27.102-19.183-34.748l31.027-30.379c18.705 15.599 30.857 38.741 30.857 65.092 0 26.249-12.151 49.459-30.857 64.99l-31.027-30.242c11.298-7.748 19.183-20.036 19.183-34.714zM689.903 440.013c0-49.459-21.504-93.696-55.057-124.791l30.652-29.764c41.062 38.878 67.072 93.525 67.072 154.556 0 60.894-26.010 115.575-67.072 154.726l-30.652-30.003c33.553-31.095 55.057-75.332 55.057-124.723zM817.869 440.149c0-84.207-35.021-160.017-91.204-214.357l30.583-30.071c63.59 62.054 103.253 148.582 103.253 244.429 0 95.778-39.663 182.238-103.253 244.292l-30.583-30.003c56.183-54.17 91.204-130.15 91.204-214.289zM476.535 653.449l-174.49-128.717v34.85h-136.533v-238.933h136.533v35.089l174.49-129.024v426.735z" />
<glyph unicode="&#xe947;" glyph-name="cwrc-iconography_media-image2" d="M775.202 610.133v-384h-512v384h512zM860.535 695.467h-682.667v-554.667h682.667v554.667zM423.014 578.219c-35.328 0-64-28.57-64-63.898 0-35.396 28.672-64.102 64-64.102 35.362 0 64 28.706 64 64.102 0 35.362-28.638 63.898-64 63.898zM305.869 268.8h426.667v154.726l-67.55 122.607-91.716-198.11-54.067 55.228c0 0-74.854-27.785-99.567-70.451-39.287 21.333-60.621 0-60.621 0l-53.146-64z" />
<glyph unicode="&#xe948;" glyph-name="cwrc-iconography_media-video2" d="M763.051 678.98c-61.781 67.14-145.886 106.223-236.817 110.012-190.225 8.567-347.511-138.581-355.294-326.758-3.789-90.965 28.126-178.108 89.941-245.282 61.815-67.14 145.92-106.223 236.851-110.012 4.881-0.205 9.626-0.341 14.473-0.341 183.501 0 333.21 143.667 340.787 327.066 3.823 91.068-28.126 178.108-89.941 245.316zM436.668 317.372v279.654l219.068-139.742-219.068-139.913z" />
<glyph unicode="&#xe949;" glyph-name="cwrc-iconography_grid-view2" d="M307.2 789.333h-136.533v-136.533h136.533v136.533zM580.267 789.333h-136.533v-136.533h136.533v136.533zM853.333 789.333h-136.533v-136.533h136.533v136.533zM307.2 516.267h-136.533v-136.533h136.533v136.533zM580.267 516.267h-136.533v-136.533h136.533v136.533zM853.333 516.267h-136.533v-136.533h136.533v136.533zM307.2 243.2h-136.533v-136.533h136.533v136.533zM580.267 243.2h-136.533v-136.533h136.533v136.533zM853.333 243.2h-136.533v-136.533h136.533v136.533z" />
<glyph unicode="&#xe94a;" glyph-name="cwrc-iconography_list-view2" d="M307.2 789.333h-136.533v-136.533h136.533v136.533zM307.2 516.267h-136.533v-136.533h136.533v136.533zM307.2 243.2h-136.533v-136.533h136.533v136.533zM853.333 789.333h-409.6v-136.533h409.6v136.533zM853.333 516.267h-409.6v-136.533h409.6v136.533zM853.333 243.2h-409.6v-136.533h409.6v136.533z" />
<glyph unicode="&#xe94b;" glyph-name="cwrc-iconography_phone2" d="M660.617 214.903c-20.036-4.062-153.498 1.434-262.246 124.075-115.268 130.116-103.356 276.787-98.85 285.867 8.875 17.749 27.921 36.693 52.19 51.917 3.516 2.15 7.134 3.652 10.957 4.437 15.94 3.277 30.891-6.383 40.789-12.8l5.086-3.209c13.517-7.782 30.174-95.71 29.491-106.53-0.785-12.595-14.541-25.020-47.65-54.409 9.591-32.7 38.912-77.517 62.259-103.868 21.538-24.303 67.925-65.946 100.932-80.213 28.57 25.259 43.076 37.99 54.716 40.38 1.741 0.341 3.447 0.478 5.018 0.375 10.82-0.614 96.119-27.785 102.195-42.086l2.594-5.495c6.246-12.8 16.623-34.236 2.048-52.292-18.022-22.289-39.117-38.946-57.788-45.636l-1.741-0.512zM363.52 677.308c-3.209-0.683-6.417-1.877-9.626-3.891-20.412-12.834-41.199-31.266-50.79-50.381-5.632-11.196-12.254-156.672 98.304-281.395 107.452-121.276 240.299-126.498 258.389-122.778 0.546 0.102 0.922 0.239 1.297 0.307 20.070 7.236 40.858 25.668 56.081 44.407 15.121 18.773-0.307 42.189-5.222 53.726s-87.552 39.049-98.816 39.697c-1.263 0.034-2.594-0.034-3.959-0.307-10.82-2.219-25.771-15.462-54.75-41.131-32.939 13.21-80.998 55.467-104.653 82.227-23.689 26.692-54.613 73.557-63.795 107.827 32.7 28.979 47.548 42.121 48.23 53.316 0.683 11.23-16.691 96.597-27.58 102.878-9.182 5.291-25.873 19.046-43.11 15.497zM361.95 685.090c17.476 3.55 33.314-6.588 43.725-13.346 1.809-1.161 3.447-2.219 4.915-3.072 16.35-9.455 31.983-102.673 31.471-110.217-0.785-13.995-14.404-26.522-47.036-55.433 10.103-31.915 38.195-74.65 60.689-100.011 20.787-23.484 64.922-63.249 97.246-78.165 28.604 25.361 42.189 37.069 54.647 39.595 2.082 0.41 4.096 0.58 6.042 0.478 7.509-0.444 98.236-27.102 105.643-44.544 0.649-1.536 1.502-3.311 2.458-5.291 6.246-12.8 17.783-36.523 1.57-56.525-8.704-10.82-32.017-37.035-59.529-46.899l-1.809-0.546-0.58-0.068c-20.343-4.164-155.955 1.229-265.933 125.303-111.241 125.474-107.588 273.988-99.465 290.236 13.107 26.146 41.916 46.148 53.692 53.555 3.857 2.423 7.987 4.062 12.254 4.949v0 0z" />
<glyph unicode="&#xe94c;" glyph-name="cwrc-iconography_blog2" d="M619.793 441.651c-22.801-22.835-22.801-22.835-45.636-91.273-91.375-91.409-182.75-91.409-182.75-91.409l-22.835-22.835c0 0-22.835-22.869-45.67 0l137.045 136.977 1.707 2.355c18.022-8.806 40.414-5.871 55.398 9.079 18.91 18.978 18.91 49.596 0 68.54-18.91 18.876-49.562 18.876-68.506-0.034-14.985-14.95-17.92-37.342-9.114-55.433l-2.321-1.673-137.011-137.011c-22.869 22.835 0 45.705 0 45.705l22.801 22.835c0 0 0.068 91.273 91.375 182.647 68.506 22.801 68.506 22.801 91.341 45.67 22.835 22.801 22.835 22.801 22.835 22.801l114.21-114.142c0 0.034 0 0.034-22.869-22.801zM665.498 487.287l-114.176 114.176 68.471 68.574 114.244-114.176-68.54-68.574z" />
<glyph unicode="&#xe94d;" glyph-name="cwrc-iconography_facebook2" d="M609.041 447.829h-63.488c0-101.444 0-226.372 0-226.372h-94.071c0 0 0 123.665 0 226.372h-44.749v79.974h44.749v51.78c0 37.035 17.647 94.959 94.891 94.959l69.7-0.273v-77.653c0 0-42.359 0-50.551 0-8.226 0-19.968-4.096-19.968-21.777v-47.002h71.748l-8.26-80.009z" />
<glyph unicode="&#xe94e;" glyph-name="cwrc-iconography_twitter2" d="M692.122 540.365c0.273-3.959 0.273-7.953 0.273-12.015 0-122.812-93.389-264.465-264.465-264.465-52.463 0-101.274 15.36-142.473 41.779 7.339-0.819 14.677-1.297 22.187-1.297 43.588 0 83.593 14.848 115.473 39.765-40.721 0.785-75.059 27.682-86.869 64.58 5.666-1.058 11.469-1.673 17.476-1.673 8.533 0 16.725 1.161 24.542 3.277-42.53 8.567-74.615 46.148-74.615 91.136 0 0.41 0 0.785 0 1.161 12.595-6.963 26.863-11.093 42.052-11.605-24.917 16.623-41.335 45.124-41.335 77.38 0 17.033 4.608 33.007 12.595 46.729 45.807-56.218 114.347-93.218 191.59-97.143-1.604 6.827-2.321 13.892-2.321 21.163 0 51.337 41.472 92.979 92.945 92.979 26.658 0 50.859-11.332 67.789-29.321 21.197 4.13 41.062 11.878 59.051 22.562-6.929-21.743-21.743-39.936-40.858-51.473 18.739 2.253 36.659 7.27 53.316 14.643-12.425-18.671-28.126-35.055-46.353-48.162z" />
<glyph unicode="&#xe94f;" glyph-name="cwrc-iconography_share2" d="M752.674 291.055c0-48.469-39.322-87.927-87.893-87.927-48.538 0-87.859 39.458-87.859 87.927 0 1.877 0.444 3.652 0.58 5.53l-160.495 83.524c-15.428-13.585-35.499-22.118-57.651-22.118-48.572 0-87.962 39.39-87.962 87.927s39.39 87.893 87.962 87.893c19.866 0 37.99-6.827 52.668-17.954l165.274 86.016c-0.068 1.058-0.341 2.082-0.341 3.14 0 48.538 39.322 87.859 87.859 87.859 48.572 0 87.893-39.322 87.893-87.859 0-48.469-39.322-87.927-87.893-87.927-19.866 0-37.99 6.861-52.736 17.988l-164.727-85.777 166.605-86.699c14.404 10.206 31.881 16.384 50.859 16.384 48.503 0.034 87.859-39.356 87.859-87.927z" />
<glyph unicode="&#xe950;" glyph-name="cwrc-iconography_search2" d="M738.85 292.625l-88.883 88.849c16.589 29.355 26.18 63.147 26.18 99.26 0 111.582-90.795 202.308-202.377 202.308-111.548 0-202.308-90.726-202.308-202.308s90.761-202.377 202.308-202.377c41.779 0 80.589 12.698 112.811 34.475l86.187-86.221c9.148-9.114 21.060-13.619 33.041-13.619 11.947 0 23.893 4.54 33.041 13.619 18.227 18.227 18.227 47.787 0 66.014zM333.756 480.7c0 77.175 62.839 140.049 140.049 140.049 77.312 0 140.083-62.874 140.083-140.049 0-77.278-62.805-140.117-140.083-140.117-77.21 0-140.049 62.874-140.049 140.117z" />
<glyph unicode="&#xe951;" glyph-name="cwrc-iconography_huvis2" d="M618.769 545.758c-9.83 9.83-25.805 9.83-35.635 0s-9.83-25.771 0-35.635c9.83-9.83 25.805-9.83 35.635 0 9.83 9.865 9.83 25.805 0 35.635zM686.046 445.099h-338.227v-33.553h338.227v33.553zM579.072 485.035l-23.723 23.723-175.206-175.206 23.723-23.757 175.206 175.241zM527.326 316.791l-27.955 263.236-33.417-3.55 27.955-263.236 33.417 3.55zM492.919 639.59c-9.865 9.865-25.805 9.865-35.635 0-9.83-9.796-9.83-25.771 0-35.601s25.771-9.83 35.635 0c9.83 9.83 9.83 25.805 0 35.601zM747.588 446.123c-9.796 9.83-25.805 9.83-35.601 0-9.83-9.83-9.83-25.805 0-35.601 9.796-9.865 25.805-9.865 35.601 0 9.83 9.796 9.83 25.771 0 35.601zM323.994 449.604c-9.83 9.865-25.839 9.865-35.635 0-9.83-9.83-9.83-25.771 0-35.601 9.796-9.83 25.805-9.83 35.635 0 9.796 9.83 9.796 25.771 0 35.601zM534.733 290.406c-9.83 9.83-25.771 9.83-35.635 0-9.83-9.83-9.83-25.771 0-35.635 9.865-9.83 25.805-9.83 35.635 0 9.83 9.865 9.83 25.805 0 35.635zM379.904 311.091c-9.865 9.83-25.805 9.83-35.669 0-9.83-9.83-9.83-25.771 0-35.635 9.865-9.83 25.805-9.83 35.669 0 9.83 9.865 9.83 25.805 0 35.635zM518.007 105.847c-188.211 0-341.333 153.122-341.333 341.333s153.122 341.333 341.333 341.333 341.333-153.122 341.333-341.333-153.156-341.333-341.333-341.333zM518.007 720.247c-150.562 0-273.067-122.505-273.067-273.067s122.505-273.067 273.067-273.067 273.067 122.505 273.067 273.067-122.505 273.067-273.067 273.067z" />
<glyph unicode="&#xe952;" glyph-name="cwrc-iconography_notifications2" d="M752.23 293.717v-68.676h-479.983v68.676h34.236c29.457 0 29.457 20.343 29.457 30.891 0 120.934 36.693 223.573 109.841 261.632 7.339 37.478 34.167 84.651 66.526 84.651 32.256 0 59.085-47.206 66.423-84.651 73.216-38.059 109.841-140.698 109.841-261.632 0-10.581 0-30.891 29.423-30.891h34.236z" />
<glyph unicode="&#xe953;" glyph-name="cwrc-iconography_dynamic-table-of-context2" d="M317.645 512.887c-5.598 13.551-13.687 25.634-24.098 36.079-1.638 1.638-3.345 3.277-5.973 5.564l-4.164 3.652c-14.063 11.298-28.638 18.022-43.383 19.9-13.858 1.809-28.57 2.731-46.66 3.038h-72.192v-26.624h25.020v-171.998h-25.020v-26.624h91.409c16.486 0 31.881 2.97 45.739 8.738 13.858 5.837 25.941 13.892 35.908 24.098 9.967 10.172 17.852 22.426 23.484 36.352 5.564 13.926 8.363 29.355 8.363 45.773-0.034 14.302-2.833 28.467-8.431 42.052zM297.677 470.835c0-26.078-8.090-47.582-24.132-63.829-16.213-16.521-33.826-24.508-53.897-24.508h-45.056v171.964l41.95-0.273c23.518-0.717 42.496-8.636 58.129-24.098 15.462-15.428 23.006-34.782 23.006-59.255zM525.824 581.12v-69.086h-28.365v42.462h-42.667v-171.998h26.522v-26.624h-81.442v26.624h26.522v171.998h-42.667v-42.462h-28.365v69.086h170.462zM669.116 482.714c-15.019 14.643-34.099 22.050-56.661 22.050-22.391 0-41.37-7.441-56.32-22.084-15.019-14.677-22.665-33.041-22.665-54.511-0.239-21.538 7.305-39.629 22.426-53.965 14.985-14.097 34.031-21.265 56.559-21.265s41.574 7.168 56.593 21.265c15.019 14.234 22.665 32.393 22.733 54.067 0 0.068 0 0.171 0 0.171-0.102 21.333-7.714 39.595-22.665 54.272zM613.001 378.368c-15.189 0-27.511 4.471-37.649 13.653-9.933 9.079-14.78 20.855-14.78 36.079 0 15.292 4.813 27.307 14.78 36.762 9.933 9.557 22.084 14.199 37.069 14.199 15.36 0 27.648-4.642 37.547-14.165 9.796-9.421 14.609-21.402 14.609-36.796 0-15.223-4.813-26.999-14.507-36.113-9.933-9.148-22.050-13.619-37.069-13.619zM926.925 436.873l-2.321-8.124c-7.441-25.634-20.412-45.158-38.502-58.129-17.92-12.902-40.141-19.422-65.946-19.422-30.891 0-57.515 11.264-79.155 33.417-21.606 22.118-32.563 50.244-32.563 83.593 0 31.471 10.479 59.153 31.061 82.227 20.753 23.279 49.289 35.089 84.821 35.089l6.554-0.171 6.554-0.478c12.937-1.468 25.259-5.018 36.83-10.615 6.997-3.345 13.346-7.612 18.91-12.732v19.593h26.658v-77.892h-23.62l-1.058 4.915c-3.618 16.35-11.913 28.604-25.19 37.376-13.517 8.943-28.911 13.414-45.636 13.414-25.225 0-45.67-8.363-62.464-25.668-16.862-17.306-25.054-38.502-25.054-64.717 0-23.927 7.714-45.397 22.903-63.829 15.121-18.295 34.884-27.204 60.45-27.204 19.046 0 35.294 4.745 48.435 14.029 13.073 9.284 22.869 23.040 29.116 40.755l1.399 4.028 27.819 0.546zM34.133 154.044v61.884h955.733v-61.884h-955.733zM923.546 6.724h-823.091c-18.432 14.404-33.655 32.358-44.919 53.043h912.93c-11.264-20.651-26.487-38.639-44.919-53.043z" />
<glyph unicode="&#xe954;" glyph-name="cwrc-iconography_magic-circle2" d="M305.084 387.482l-2.594 13.961h-117.897l2.628-19.354c19.593-145.306 134.793-260.54 280.098-280.235l19.354-2.628v117.931l-13.926 2.594c-84.548 15.77-151.962 83.183-167.663 167.731zM452.574 138.957c-114.517 23.45-204.868 113.801-228.25 228.318h50.21c21.675-87.108 90.897-156.365 178.039-178.074v-50.244zM305.084 464.521c15.735 84.548 83.149 151.962 167.697 167.731l13.926 2.594v117.931l-19.354-2.628c-145.306-19.627-260.506-134.861-280.098-280.235l-2.628-19.354h117.862l2.594 13.961zM635.358 348.979c-12.8 8.431-33.655 15.223-54.443 23.996-27.853 11.81-34.406 15.974-34.406 15.974l-0.273 27.102c0 0 10.411 8.158 13.653 33.69 6.519-1.877 13.414 9.899 13.756 16.213 0.341 5.905-0.887 22.528-8.875 20.89 1.57 12.459 2.731 23.791 2.253 29.73-2.116 21.845-23.245 44.851-55.774 44.851s-53.623-23.040-55.74-44.851c-0.58-5.939 0.649-17.271 2.219-29.73-7.919 1.638-9.216-14.985-8.875-20.89 0.375-6.315 7.202-18.057 13.79-16.213 3.209-25.532 13.653-33.69 13.653-33.69l-0.137-27.102c0 0-6.622-4.164-34.441-15.974-20.753-8.772-41.643-15.565-54.443-23.996 29.491-35.669 74.103-58.368 124.041-58.368s94.549 22.699 124.041 58.368zM555.349 750.148l-19.354 2.628v-117.931l13.926-2.594c84.582-15.77 151.962-83.217 167.697-167.731l2.594-13.961h117.862l-2.628 19.354c-19.627 145.374-134.827 260.608-280.098 280.235zM748.134 484.693c-21.675 87.108-90.897 156.365-178.039 178.074v50.278c114.517-23.415 204.834-113.766 228.25-228.318h-50.21zM717.585 387.482c-15.735-84.548-83.149-151.962-167.697-167.731l-13.926-2.594v-117.931l19.354 2.628c145.306 19.695 260.506 134.929 280.098 280.235l2.628 19.354h-117.828l-2.628-13.961z" />
<glyph unicode="&#xe955;" glyph-name="cwrc-iconography_plot-it2" d="M280.678 563.575c0 127.863 103.526 231.322 231.253 231.322 127.795 0 231.322-103.458 231.322-231.322 0-231.253-185.071-231.253-231.322-462.541-46.251 231.287-231.253 231.287-231.253 462.541zM358.366 559.309c-0.956-86.084 67.925-155.819 152.508-156.126 84.173-0.307 154.044 67.004 154.692 151.757 0.751 86.255-67.857 155.477-153.327 155.648-83.558 0-152.849-66.628-153.873-151.279zM431.377 535.962c-1.024-0.102-2.287-0.307-3.55-0.307-15.906 0-31.881 0.137-47.787-0.034-3.243 0-4.71 0.887-4.71 4.267 0.102 11.401 0 22.972 0.239 34.475 0 1.229 1.707 3.618 2.662 3.618 17.749 0.239 35.226 0.171 53.146 0.171 0-14.302 0-28.126 0-42.189zM647.919 577.911c2.219-14.063 2.219-27.955 0-41.984-18.705 0-36.932 0-55.364 0 0 14.063 0 27.921 0 41.984 18.364 0 36.693 0 55.364 0zM576.307 535.962c-18.876 0-37.205 0-55.808 0 0 14.063 0 27.887 0 41.95 18.534 0 36.693 0 55.808 0 0-14.097 0-27.887 0-41.95zM503.501 577.911c0-13.995 0-27.887 0-41.95-18.398 0-36.659 0-55.637 0 0 13.995 0 27.819 0 41.95 18.978 0 37.103 0 55.637 0zM520.294 519.407c17.988 0 35.738 0 54.579 0-3.311-14.165-6.451-27.921-9.557-41.677-15.428 0-30.106 0-44.988 0-0.034 14.029-0.034 27.75-0.034 41.677zM503.637 477.559c-9.182 0-17.988 0-26.897 0-4.881 0-9.796-0.205-14.575 0.034-1.126 0.068-3.004 1.263-3.243 2.219-3.482 12.902-6.554 26.010-10.069 39.663 18.876 0 36.625 0 54.75 0 0.034-14.131 0.034-27.819 0.034-41.916zM520.533 594.364c0 13.858 0 27.682 0 42.018 2.97 0 5.837 0 8.806 0 10.479 0 20.992-0.171 31.539 0 2.833 0.068 4.13-0.614 4.745-3.413 3.038-12.698 6.212-25.293 9.489-38.639-19.081 0.034-36.591 0.034-54.579 0.034zM449.365 594.364c2.15 9.762 3.959 19.081 6.178 28.467 1.092 4.54 1.604 10.274 4.676 12.8 2.56 2.15 8.431 0.717 12.732 0.717 10.035 0.068 20.207 0.068 30.549 0.068 0-14.097 0-27.921 0-42.018-17.988-0.034-35.738-0.034-54.135-0.034zM625.425 479.232c-0.58-0.819-1.946-1.638-3.072-1.638-13.312-0.171-26.658-0.034-40.038-0.034 2.901 13.926 5.734 27.716 8.738 41.916 17.408 0 34.987 0 53.282 0-4.096-14.78-10.445-27.989-18.91-40.243zM401.34 477.594c-0.819 0-1.877 0.58-2.389 1.195-8.738 12.322-14.985 25.839-19.422 40.994 2.697 0 4.813 0 6.793 0 14.507 0 28.979-0.068 43.486 0 2.526 0.102 3.721-0.649 4.267-3.311 2.458-12.322 5.12-24.644 7.782-36.966 0.068-0.546 0-1.126 0-1.98-13.551 0.034-26.999 0.034-40.516 0.068zM398.404 634.368c0.614 0.819 1.741 1.843 2.56 1.843 13.653 0.171 27.204 0.102 40.721 0.102-2.867-14.063-5.837-27.819-8.841-41.916-17.306 0-35.055 0-53.146 0 4.062 14.746 10.377 27.887 18.705 39.97zM582.281 636.416c10.957 0 22.050-0.614 33.109 0.137 7.1 0.478 10.957-2.082 14.336-8.124 5.905-10.752 11.196-21.675 14.746-33.963-17.988 0-35.738 0-53.316 0-3.072 14.063-5.905 27.819-8.875 41.95zM503.569 652.766c-12.254 0-24.678 0-37.649 0 8.738 17.237 17.988 33.178 37.649 40.653 0-13.926 0-27.17 0-40.653zM503.569 461.141c0-13.483 0-26.692 0-40.585-19.661 7.339-28.911 23.381-37.649 40.585 12.868 0 25.156 0 37.649 0zM557.261 461.21c-4.676-15.735-23.586-38.912-36.83-39.936 0 13.175 0 26.317 0 39.936 12.493 0 24.713 0 36.83 0zM520.294 652.698c0 13.414 0 26.487 0 39.663 13.312-0.341 31.983-24.030 37.137-39.663-12.288 0-24.576 0-37.137 0zM456.909 670.14c-1.741-2.697-3.55-5.359-4.301-8.294-2.048-8.602-7.612-10.342-15.565-9.557-7.168 0.717-14.473 0.171-21.777 0.171-0.341 0-0.478 0.171-1.604 0.307 15.36 15.974 33.075 26.999 54.101 34.509-3.925-6.315-7.543-11.708-10.854-17.135zM584.806 652.254c-6.895-0.614-10.001 1.809-12.868 7.987-3.721 8.329-9.148 15.872-13.926 23.825-0.58 0.717-0.99 1.536-2.048 3.174 21.299-7.339 39.014-18.637 54.886-34.816-9.421 0.034-17.783 0.546-26.044-0.171zM413.73 460.834c1.058 0.307 1.843 0.58 2.628 0.58 9.557 0 19.183 0.068 28.911-0.034 1.161-0.034 3.004-0.819 3.584-1.843 6.007-10.718 11.81-21.572 17.681-32.358-19.797 6.861-37.41 17.988-52.804 33.655zM574.942 459.264c0.478 0.887 1.434 2.116 2.15 2.116 10.854 0.068 21.743 0.068 33.69 0.068-15.838-16.247-33.519-27.375-53.35-34.236 5.837 10.752 11.674 21.367 17.51 32.051z" />
<glyph unicode="&#xe956;" glyph-name="cwrc-iconography_add-bookmarks2" d="M188.314 641.434v-546.133l136.533 170.667 136.533-170.667v546.133h-273.067zM876.988 594.432h-115.2v115.268h-76.8v-115.268h-115.2v-76.732h115.2v-115.2h76.8v115.2h115.2v76.732z" />
<glyph unicode="&#xe957;" glyph-name="cwrc-iconography_book-reader2" d="M770.833 652.698c-23.757 0-203.571-2.253-258.833-69.257-55.296 67.004-235.076 69.257-258.867 69.257h-16.111v-388.13h32.29l0.102-32.358h16.145c13.141 0 28.945 0.785 45.807 1.638 18.671 0.922 38.639 1.946 57.685 1.946 48.026 0 74.479-6.997 74.479-19.797v-16.111h96.973v16.111c0 12.8 26.419 19.797 74.513 19.797 19.046 0 39.014-0.99 57.685-1.946 16.828-0.819 32.631-1.638 45.807-1.638h16.145v32.358h32.324v388.13h-16.145zM560.469 323.857v215.654c0 11.674 30.276 44.476 161.894 48.299v-242.62c-54.716-0.683-116.838-4.574-161.894-21.333zM339.593 585.66c105.677-7.543 121.344-32.427 123.153-42.735l0.717-219.068c-45.022 16.725-107.179 20.617-161.86 21.333v242.586c9.489-0.307 18.398-0.785 26.829-1.297l5.291-0.375z" />
<glyph unicode="&#xe958;" glyph-name="cwrc-iconography_cwrc-writer2" d="M249.105 413.423v-1.741l138.274-58.231v-77.722l-211.968 104.687v65.98l211.968 104.414v-77.449l-138.274-59.938zM774.588 412.843v1.741l-139.708 59.085v77.141l213.709-104.414v-65.98l-213.709-104.687v77.175l139.708 59.938zM575.283 581.564l-46.558 10.991c-6.383 1.536-12.766-2.253-14.234-8.397-0.137-0.512-0.034-0.956-0.068-1.468l-0.307 0.068-5.257-22.289-62.089-255.795 69.7-16.486 62.123 255.795 5.291 22.289-0.273 0.068c0.171 0.512 0.478 0.819 0.58 1.365 1.502 6.11-2.56 12.356-8.909 13.858zM442.778 288.324l11.913-27.341 11.981-27.341 45.875 38.195-69.769 16.486z" />
<glyph unicode="&#xe959;" glyph-name="cwrc-iconography_projects2" d="M789.026 455.1v0l-134.827 134.861c0 0.068-0.068 0.068-0.102 0.102l-134.861 134.895c-0.171 0.171-0.375 0.341-0.58 0.512-1.57 1.399-3.447 2.185-5.393 2.423-0.614 0.102-1.263 0.137-1.946 0.102-2.321-0.171-4.676-1.161-6.485-2.97l-269.756-269.79c-0.205-0.171-0.375-0.375-0.546-0.58-1.365-1.57-2.15-3.482-2.389-5.393-0.102-0.649-0.137-1.263-0.068-1.946 0.137-2.321 1.126-4.642 2.901-6.451h0.034l134.929-134.929c0.444-0.444 0.99-0.649 1.468-0.956l133.939-133.905c0.171-0.205 0.341-0.375 0.546-0.546 1.57-1.399 3.482-2.185 5.393-2.423 0.41-0.034 0.853-0.068 1.263-0.068 0.239 0 0.444 0 0.683 0 2.355 0.171 4.71 1.161 6.485 2.97l134.895 134.929c0.478 0.444 0.717 1.024 1.024 1.536l133.359 133.359c0.205 0.171 0.375 0.375 0.546 0.58 1.365 1.57 2.116 3.447 2.389 5.359 0.068 0.649 0.102 1.263 0.034 1.911-0.171 2.321-1.126 4.642-2.935 6.417zM501.897 693.453v-85.538c-9.865-3.994-16.862-13.653-16.862-24.986 0-14.916 12.083-26.965 26.965-26.965 14.95 0 26.999 12.083 26.999 26.965 0 11.332-6.963 20.992-16.828 24.986v85.538l110.49-110.49-120.661-120.661-120.627 120.627 110.524 110.524zM352.085 437.897c3.994-9.865 13.653-16.862 24.986-16.862 14.916 0 26.965 12.083 26.965 26.965s-12.083 26.999-26.965 26.999c-11.332 0-20.992-6.963-24.986-16.862h-85.47l110.49 110.524 120.627-120.661-120.627-120.593-110.49 110.49h85.47zM522.65 288.085c9.865 3.994 16.862 13.653 16.862 24.986 0 14.916-12.083 26.965-26.999 26.965s-26.999-12.083-26.999-26.965c0-11.332 6.997-20.992 16.862-24.986v-85.538l-110.49 110.524 120.354 120.32 120.627-120.593-110.217-110.251v85.538zM671.949 458.103c-3.994 9.899-13.653 16.862-24.986 16.862-14.916 0-26.965-12.083-26.965-26.999s12.083-26.965 26.965-26.965c11.332 0 20.992 6.997 24.986 16.862h85.504l-110.217-110.251-120.627 120.661 120.354 120.354 110.49-110.524h-85.504z" />
<glyph unicode="&#xe95a;" glyph-name="cwrc-iconography_see-bookmarks2" d="M358.775 696.934v-546.133l136.533 170.667 136.533-170.667v546.133h-273.067z" />
<glyph unicode="&#xe95b;" glyph-name="cwrc-iconography_add-workflow-stamp2" d="M849.476 639.966h-115.2v115.234h-76.8v-115.234h-115.2v-76.766h115.2v-115.2h76.8v115.2h115.2v76.766zM586.342 304.094c-88.405 14.438-154.59 72.567-154.59 142.165 0 23.962 8.055 46.524 21.914 66.458 0.819 1.195 1.536 2.389 2.423 3.55 5.837 9.318 9.387 20.241 9.387 32.017 0 33.417-27.136 60.518-60.587 60.518-33.417 0-60.553-27.102-60.553-60.518 0-11.81 3.55-22.733 9.387-32.017 0.887-1.161 1.604-2.355 2.423-3.55 13.892-19.934 21.914-42.496 21.914-66.458 0-69.598-66.185-127.727-154.522-142.165h-53.111v-54.613h468.958v54.613h-53.043zM639.386 197.427h-468.958v-34.133h468.958v34.133z" />
<glyph unicode="&#xe95c;" glyph-name="cwrc-iconography_sort-by-last-modified2" d="M753.766 355.669l-33.826 33.792c-4.642 4.676-12.083 4.779-16.521 0.341-0.375-0.375-0.546-0.819-0.785-1.195l-0.239 0.205-16.213-16.213-90.18-89.19 50.654-50.688 90.18 89.19 16.247 16.247-0.205 0.205c0.41 0.307 0.819 0.444 1.195 0.819 4.471 4.369 4.301 11.844-0.307 16.486zM584.021 271.599l-4.233-29.559-4.164-29.525 59.051 8.397-50.654 50.688zM634.197 647.68h-28.74v-57.481h28.74v57.481zM404.275 647.68h-28.74v-57.481h28.74v57.481zM433.015 446.498h57.515v57.481h-57.515v-57.481zM519.236 446.498h57.515v57.481h-57.515v-57.481zM605.457 503.979v-57.481h57.481v57.481h-57.481zM346.795 360.277h57.481v57.481h-57.481v-57.481zM433.015 360.277h57.515v57.481h-57.515v-57.481zM519.236 360.277h57.515v57.481h-57.515v-57.481zM346.795 274.022h57.481v57.481h-57.481v-57.481zM433.015 274.022h57.515v57.481h-57.515v-57.481zM318.020 245.316v287.403h373.658v-101.547l28.74 28.74v159.061h-57.515v57.446h-86.187v-57.481h-143.735v57.481h-86.187v-57.481h-57.481v-402.398h187.802l28.74 28.74h-187.836zM605.457 647.68h28.74v-57.481h-28.74v57.481zM375.535 647.68h28.74v-57.481h-28.74v57.481z" />
<glyph unicode="&#xe95d;" glyph-name="cwrc-iconography_view-workflow-stamp2" d="M681.131 359.834c-88.405 14.438-154.59 72.567-154.59 142.165 0 23.962 8.055 46.524 21.914 66.458 0.819 1.195 1.536 2.389 2.423 3.55 5.837 9.318 9.387 20.241 9.387 32.017 0 33.417-27.136 60.518-60.587 60.518-33.417 0-60.553-27.102-60.553-60.518 0-11.81 3.55-22.733 9.387-32.017 0.887-1.161 1.604-2.355 2.423-3.55 13.892-19.934 21.914-42.496 21.914-66.458 0-69.598-66.185-127.727-154.522-142.165h-53.077v-54.613h468.958v54.613h-53.077zM734.208 253.167h-468.958v-34.133h468.958v34.133z" />
<glyph unicode="&#xe95e;" glyph-name="cwrc-iconography_find-and-replace2" d="M585.455 560.981l1.946-5.052c36.147-55.74 25.737-128.922-21.879-176.469-24.883-24.849-58.334-38.161-92.945-40.516l6.793 39.458-125.474-45.227 100.591-84.412 6.212 32.631c53.282-0.41 104.858 20.070 143.804 59.017 69.393 69.427 83.149 173.602 27.477 253.065l-5.12 8.977-41.404-41.472zM339.456 404.275c-36.079 55.74-27.853 131.038 19.729 178.654 24.883 24.849 57.276 39.322 91.853 41.609l-7.305-39.014 120.013 50.62-98.202 82.091-4.983-33.86c-53.282 0.444-104.277-20.617-143.189-59.597-69.393-69.359-78.541-178.278-22.801-257.707l9.66-13.551 41.472 41.472-6.246 9.284zM595.149 348.399l137.011-136.977zM755.917 235.247l-136.943 136.977c-13.21 13.175-34.543 13.141-47.65 0-13.141-13.175-13.141-34.509 0-47.65l136.943-137.011c13.141-13.141 34.543-13.141 47.65 0 13.141 13.175 13.141 34.509 0 47.684z" />
<glyph unicode="&#xe95f;" glyph-name="cwrc-iconography_sort-alphabetically2" d="M771.789 727.791h-268.902v-57.037h268.902v57.037zM771.789 583.1h-268.902v-57.037h268.902v57.037zM771.789 364.919h-268.902v-57.037h268.902v57.037zM771.789 220.228h-268.902v-57.037h268.902v57.037zM351.573 737.86l80.384-214.938h-49.084l-16.282 47.855h-80.35l-16.828-47.855h-47.582l81.271 214.938h48.469zM354.304 606.003l-27.102 78.882h-0.614l-27.989-78.882h55.706zM351.573 333.312h-106.257v39.765h169.165v-37.342l-115.302-137.899h118.306v-39.731h-181.214v37.342l115.302 137.865z" />
<glyph unicode="&#xe960;" glyph-name="cwrc-iconography_export2" d="M902.383 421.956l-169.438 135.509v-67.789c-304.947 0-338.876-169.335-338.876-203.264 67.755 135.578 305.015 67.755 338.876 67.755v-67.755l169.438 135.543zM490.803 705.809h-271.087v-515.584h418.884v367.787l-147.797 147.797zM574.123 254.669h-289.997v386.662h179.985l13.346-13.38v-83.285h83.319l13.346-13.346v-276.651z" />
<glyph unicode="&#xe961;" glyph-name="cwrc-iconography_manage-users2" d="M828.348 656.282h-34.031c-2.014 6.554-4.847 12.663-8.329 18.398l22.596 22.63c5.325 5.257 5.325 13.824 0 19.183l-9.557 9.591c-5.291 5.325-13.892 5.257-19.183 0l-22.972-22.972c-6.212 3.55-12.937 6.383-20.070 8.124v29.833c0 7.543-6.042 13.551-13.517 13.551h-13.653c-7.475 0-13.517-6.042-13.517-13.551v-29.833c-7.817-2.014-15.121-5.086-21.845-9.182l-19.183 19.217c-5.325 5.257-13.892 5.325-19.183 0l-9.591-9.626c-5.291-5.291-5.257-13.858 0-19.149l19.524-19.558c-4.096-7.236-7.202-15.121-8.977-23.45h-25.566c-7.509 0-13.585-6.144-13.585-13.517v-13.585c0-7.475 6.11-13.585 13.585-13.585h27.238c2.526-8.090 6.212-15.735 10.991-22.63l-18.432-18.398c-5.291-5.291-5.291-13.892-0.068-19.217l9.626-9.626c5.257-5.257 13.926-5.257 19.183 0.102l20.617 20.617c6.963-3.55 14.473-5.973 22.357-7.305v-28.365c0-7.509 6.076-13.517 13.585-13.517h13.585c7.441 0.034 13.517 6.042 13.517 13.517v31.881c6.895 2.389 13.312 5.7 19.183 9.762l21.879-21.879c5.325-5.325 13.892-5.325 19.183 0l9.626 9.626c5.291 5.325 5.291 13.926-0.068 19.183l-23.893 24.098c2.901 5.871 5.188 12.151 6.588 18.91h32.29c7.543 0 13.585 6.144 13.619 13.585v13.551c0.034 7.543-6.042 13.585-13.551 13.585zM716.425 598.596c-18.739 0-33.894 15.189-33.894 33.963 0 18.705 15.155 33.929 33.894 33.929s33.963-15.223 33.963-33.929c0-18.773-15.223-33.963-33.963-33.963zM694.647 107.622c0 30.549 0.41 60.587-0.137 90.59-0.205 11.878-7.953 21.129-16.998 27.409-23.723 16.521-47.991 32.529-72.909 47.343-15.121 9.045-31.676 15.667-47.753 22.869-4.676 2.116-6.042 4.676-6.622 9.83-1.809 16.828 0.649 30.003 15.087 42.462 16.35 14.234 21.333 36.147 23.893 57.481 3.379 27.989 2.116 55.569-8.329 82.125-12.425 31.505-36.25 48.777-68.369 49.562-33.28 0.717-58.436-14.473-71.339-46.217-16.418-40.311-16.93-81.681 0.41-121.719 5.291-12.254 16.486-21.879 24.747-32.87 2.048-2.731 4.267-6.212 4.233-9.318-0.102-27.819-0.683-27.17-24.951-40.926-26.692-15.019-52.702-31.232-78.575-47.548-7.987-5.018-14.814-11.844-21.982-18.022-13.995-12.049-20.958-26.658-19.866-45.875 1.195-22.016 0.273-44.169 0.273-67.174 61.713 0 123.255-21.163 184.9-21.163 61.269 0 127.625 21.163 184.286 21.163zM281.975 203.059l-133.564 0.034 0.068 31.198c0.102 12.8 0.239 25.19-0.239 37.581-0.546 13.892 4.54 25.566 15.462 35.635 4.335 4.096 9.353 8.841 15.599 12.39l7.509 4.301c18.091 10.411 36.181 20.787 54.886 29.901 4.471 2.185 5.7 3.174 6.042 3.55l-0.478 8.567c-1.297 0.375-3.038 2.15-4.779 3.959-4.198 4.437-8.977 9.455-12.049 16.179-15.804 34.338-15.599 70.144 0.649 103.526 10.82 22.153 30.993 34.372 56.798 34.372 25.259-0.068 44.885-11.776 57.037-33.826 7.68-13.995 11.571-30.14 11.947-49.391 0.444-23.518-1.911-50.278-22.357-70.315-5.086-4.949-6.212-8.294-5.359-16.179 7.646-3.755 16.452-9.455 25.225-15.258l57.378-38.878-31.198-19.934c-33.246-20.719-58.778-42.803-78.063-67.55-5.222-6.622-11.913-9.865-20.514-9.865zM233.506 230.741l48.299-0.034 0.171-13.824 0.444 13.824c18.773 25.463 45.158 48.742 79.019 70.417l-22.391 15.189c-8.397 5.564-16.964 11.059-25.634 16.35-7.168 4.369-10.889 10.411-11.776 19.081-1.195 11.435-0.546 25.054 13.517 38.775 12.971 12.663 14.438 31.505 14.097 50.005-0.307 14.882-3.038 26.522-8.567 36.625-7.27 13.244-17.681 19.422-32.597 19.49-15.497 0-25.975-6.178-32.154-18.842-12.663-26.044-12.8-52.907-0.375-79.872 1.161-2.56 3.994-5.53 6.997-8.67 2.287-2.423 4.608-4.847 6.588-7.407 3.209-3.994 4.745-8.772 5.427-12.083l0.512-2.492-0.546-5.393c4.13-20.412-13.278-28.911-20.685-32.563-18.193-8.875-35.738-18.978-53.282-29.047l-7.578-4.335c-3.413-1.946-6.793-5.154-10.445-8.567-5.086-4.71-6.929-8.738-6.724-14.473 0.478-12.8 0.375-25.6 0.273-38.81v-3.345h57.412z" />
<glyph unicode="&#xe962;" glyph-name="cwrc-iconography_edit2" d="M841.865 647.987l-127.59 127.761c-17.579 17.613-45.841 18.057-62.532 1.229-1.399-1.399-2.048-3.14-3.14-4.574l-0.785 0.717-61.338-61.269-340.821-337.169 191.625-191.556 340.787 337.067 61.338 61.303-0.785 0.99c1.536 0.956 3.209 1.57 4.54 2.97 16.93 16.759 16.316 45.022-1.297 62.532zM200.329 330.001l-15.974-111.616-15.838-111.753 223.369 31.846-191.556 191.522z" />
<glyph unicode="&#xe963;" glyph-name="cwrc-iconography_home2" d="M724.343 595.183v158.993h-88.61v-91.443l-125.030 98.782-340.036-261.086 63.966-70.554 46.967 28.092v-323.516h487.049v323.516l35.703-28.092 48.981 70.554-128.99 94.754z" />
<glyph unicode="&#xe964;" glyph-name="cwrc-iconography_locked2" d="M706.15 516.267v60.314c0 105.574-87.074 191.386-194.15 191.386s-194.15-85.811-194.15-191.386v-60.314h-43.11v-388.301h474.522v388.301h-43.11zM542.071 214.289h-71.475l18.193 99.089c-10.65 6.076-18.193 17.101-18.193 30.345 0 19.797 16.009 35.669 35.738 35.669s35.738-15.872 35.738-35.669c0-13.244-7.543-24.269-18.193-30.345l18.193-99.089zM619.861 516.267h-215.723v60.314c0 57.003 49.391 105.199 107.861 105.199 58.402 0 107.861-48.196 107.861-105.199v-60.314z" />
<glyph unicode="&#xe965;" glyph-name="cwrc-iconography_settings2" d="M815.343 514.458h-95.198c-5.564 18.261-13.517 35.362-23.211 51.371l63.078 63.283c14.814 14.677 14.814 38.707 0 53.555l-26.795 26.795c-14.78 14.985-38.844 14.746-53.623 0l-64.137-64.137c-17.34 9.865-36.147 17.783-56.149 22.733v83.388c0.034 21.060-16.725 37.888-37.854 37.888h-37.99c-20.787 0-37.786-16.794-37.786-37.854v-83.388c-21.777-5.564-42.189-14.199-60.996-25.6l-53.692 53.589c-14.882 14.78-38.878 15.019-53.658 0l-26.761-26.829c-14.916-14.78-14.677-38.81 0-53.453l54.682-54.682c-11.537-20.343-20.241-42.394-25.156-65.604h-71.441c-20.992 0-37.99-17.135-37.99-37.717v-38.059c0-20.958 16.998-37.922 37.99-37.922h76.117c7.1-22.869 17.34-44.203 30.652-63.317l-51.473-51.541c-14.78-14.746-14.78-38.844-0.102-53.692l26.761-26.999c14.848-14.746 38.98-14.746 53.794 0.239l57.617 57.685c19.456-10.001 40.55-16.691 62.601-20.343v-79.292c0-21.060 16.862-37.854 37.956-37.922h37.99c20.753 0.068 37.751 16.862 37.751 37.922v88.951c19.149 6.69 37.137 16.009 53.589 27.341l61.065-61.030c14.916-14.985 38.912-14.985 53.658 0l26.795 26.829c14.882 14.848 14.882 38.912-0.137 53.555l-66.731 67.345c8.090 16.486 14.507 34.236 18.432 53.043h90.317c20.992 0 37.922 16.964 37.99 37.956v37.888c-0.034 20.992-16.964 38.025-37.956 38.025zM502.579 353.178c-52.429 0-94.652 42.53-94.652 94.891s42.223 94.788 94.652 94.788c52.361 0 94.891-42.428 94.891-94.788s-42.53-94.891-94.891-94.891z" />
<glyph unicode="&#xe966;" glyph-name="cwrc-iconography_unlocked2" d="M728.235 789.333c-112.708 0-204.356-91.341-204.356-203.742v-70.144h-317.986v-408.781h499.644v408.815h-90.863v70.144c0 62.327 50.927 112.947 113.562 112.947s113.562-50.586 113.562-112.947v-70.144h90.795v70.144c0 112.367-91.648 203.708-204.356 203.708zM491.349 197.495h-76.288l19.866 106.701c-11.674 6.519-19.866 18.534-19.866 32.939 0 21.026 17.135 38.161 38.195 38.161 21.026 0 38.059-17.135 38.059-38.161 0-14.404-8.192-26.385-19.831-32.939l19.866-106.701z" />
<glyph unicode="&#xe967;" glyph-name="cwrc-iconography_message-received2" d="M720.247 787.388c-105.95 0-192.205-86.187-192.205-192.171 0 0 0 0 0 0h-262.417l217.361-217.429 91.921 92.023c12.254-14.165 26.487-26.453 42.325-36.557l-134.281-134.349-296.243 296.311h-0.819v-374.682h594.193v192.171c76.698 25.259 132.301 97.451 132.301 182.545 0 105.95-86.187 192.137-192.137 192.137zM780.083 449.126c-9.25-3.789-18.91-6.793-28.877-8.806-10.035-2.014-20.378-3.14-30.993-3.14-9.114 0-17.92 1.195-26.624 2.697-3.652 0.683-7.373 1.399-10.957 2.321-3.789 0.922-7.441 2.253-11.127 3.447-9.967 3.413-19.627 7.509-28.706 12.663-16.589 9.421-31.164 21.641-43.349 36.181-5.564 6.656-10.615 13.79-15.053 21.265-0.41 0.683-0.717 1.399-1.126 2.082-3.959 6.861-7.475 14.029-10.411 21.47-1.126 3.038-1.946 6.246-2.901 9.353-1.809 5.632-3.652 11.196-4.847 17.067-1.809 9.591-2.97 19.388-2.97 29.491 0 87.142 70.895 158.037 158.071 158.037 87.142 0 158.037-70.895 158.037-158.037 0-65.946-40.653-122.436-98.167-146.091zM714.103 684.169c-1.673-5.769-4.164-10.411-7.441-13.858-4.813-5.052-10.991-8.431-18.637-10.138-4.813-1.058-13.175-1.877-25.122-2.389v-25.873h45.466v-133.325h38.946v193.331h-31.744c0-1.707-0.512-4.267-1.468-7.748z" />
<glyph unicode="&#xe968;" glyph-name="cwrc-iconography_message2" d="M853.333 663.245v-430.455h-682.667v430.455h0.99l340.343-340.412 340.275 340.412h1.058zM761.651 663.245h-499.371l249.719-249.822 249.651 249.822z" />
<glyph unicode="&#xe969;" glyph-name="cwrc-iconography_profile2" d="M512.41 236.681c-57.754 0-115.507 19.797-173.329 19.797 0 21.606 0.853 42.359-0.273 63.010-1.024 17.988 5.495 31.744 18.637 43.008 6.724 5.803 13.107 12.186 20.617 16.896 24.269 15.292 48.64 30.481 73.66 44.578 22.767 12.902 23.313 12.254 23.415 38.366 0.034 2.97-2.082 6.178-3.959 8.772-7.748 10.308-18.227 19.285-23.211 30.788-16.247 37.581-15.77 76.322-0.375 114.142 12.083 29.73 35.703 43.998 66.867 43.315 30.106-0.751 52.429-16.93 64.102-46.455 9.796-24.883 10.957-50.756 7.817-77.005-2.389-20.002-7.066-40.55-22.391-53.862-13.551-11.708-15.838-24.030-14.165-39.834 0.58-4.847 1.877-7.202 6.246-9.216 15.087-6.724 30.583-12.971 44.783-21.47 23.381-13.858 46.114-28.877 68.369-44.339 8.465-5.871 15.735-14.609 15.94-25.702 0.512-28.126 0.137-56.286 0.137-84.958-53.18-0.034-115.439-19.831-172.885-19.831z" />
<glyph unicode="&#xe96a;" glyph-name="cwrc-iconography_send-a-message2" d="M883.917 419.157l-682.667 248.593 61.235-209.783 310.682-38.81-310.682-38.844-61.235-209.783 682.667 248.627z" />
<glyph unicode="&#xe96b;" glyph-name="cwrc-iconography_assigned-to2" d="M797.457 744.721h-126.771v-241.084h195.857v171.964l-69.086 69.12zM836.437 533.777h-135.612v180.838h84.173l6.246-6.212v-39.014h39.014l6.212-6.212v-129.399zM821.35 624.196h-105.472v-15.087h105.472v15.087zM776.192 669.389h-60.314v-15.053h60.314v15.053zM821.35 579.004h-105.472v-15.087h105.472v15.087zM707.447 148.105c0 30.549 0.41 60.587-0.137 90.59-0.205 11.878-7.953 21.129-16.998 27.409-23.723 16.521-47.991 32.529-72.909 47.343-15.121 9.045-31.676 15.667-47.753 22.869-4.676 2.116-6.042 4.676-6.622 9.83-1.809 16.828 0.649 30.003 15.087 42.462 16.35 14.234 21.333 36.147 23.893 57.481 3.379 27.989 2.116 55.569-8.329 82.125-12.425 31.505-36.25 48.777-68.369 49.562-33.28 0.717-58.436-14.473-71.339-46.217-16.418-40.311-16.93-81.681 0.41-121.719 5.291-12.254 16.486-21.879 24.747-32.87 2.048-2.731 4.267-6.212 4.233-9.318-0.102-27.819-0.683-27.17-24.951-40.926-26.692-15.019-52.702-31.232-78.575-47.548-7.987-5.018-14.814-11.844-21.982-18.022-13.995-12.049-20.958-26.658-19.866-45.875 1.195-22.016 0.273-44.169 0.273-67.174 61.713 0 123.255-21.163 184.9-21.163 61.269 0 127.625 21.163 184.286 21.163zM294.775 243.541l-133.564 0.034 0.068 31.198c0.102 12.8 0.239 25.19-0.239 37.581-0.546 13.892 4.54 25.566 15.462 35.635 4.335 4.096 9.353 8.841 15.599 12.39l7.509 4.301c18.091 10.411 36.181 20.787 54.886 29.901 4.471 2.185 5.7 3.174 6.042 3.55l-0.478 8.567c-1.297 0.375-3.038 2.15-4.779 3.959-4.198 4.437-8.977 9.455-12.049 16.179-15.838 34.338-15.633 70.144 0.614 103.526 10.82 22.153 30.993 34.372 56.798 34.372 25.259-0.068 44.885-11.776 57.037-33.826 7.68-13.995 11.571-30.14 11.947-49.391 0.444-23.518-1.911-50.278-22.357-70.315-5.086-4.949-6.212-8.294-5.359-16.179 7.646-3.755 16.452-9.455 25.225-15.258l57.378-38.878-31.198-19.934c-33.246-20.719-58.778-42.803-78.063-67.55-5.188-6.622-11.878-9.865-20.48-9.865zM246.306 271.223l48.299-0.034 0.171-13.824 0.444 13.824c18.773 25.463 45.158 48.742 79.019 70.417l-22.391 15.189c-8.397 5.564-16.964 11.059-25.634 16.35-7.168 4.369-10.889 10.411-11.776 19.081-1.195 11.435-0.546 25.054 13.517 38.775 12.971 12.663 14.438 31.505 14.097 50.005-0.307 14.882-3.038 26.522-8.567 36.625-7.27 13.244-17.681 19.422-32.597 19.49-15.497 0-25.975-6.178-32.154-18.842-12.663-26.044-12.8-52.907-0.375-79.872 1.161-2.56 3.994-5.53 6.997-8.67 2.287-2.423 4.608-4.847 6.588-7.407 3.209-3.994 4.745-8.772 5.427-12.083l0.512-2.492-0.546-5.393c4.13-20.412-13.278-28.911-20.685-32.563-18.193-8.875-35.738-18.978-53.282-29.047l-7.578-4.369c-3.413-1.946-6.793-5.154-10.445-8.567-5.086-4.71-6.929-8.738-6.724-14.473 0.478-12.8 0.375-25.6 0.273-38.81v-3.345l57.412 0.034z" />
<glyph unicode="&#xe96c;" glyph-name="cwrc-iconography_collection-title2" d="M560.060 719.565h-157.662v-102.4h-119.433v-102.434h-119.501v-360.414h450.492v102.4h119.467v102.4h119.467v300.339h-240.265l-52.565 60.109zM562.893 205.414h-348.365v258.253h68.437v-206.916h279.927v-51.337zM682.359 307.814h-348.331v258.287h68.369v-206.985h279.962v-51.302zM716.493 483.703h-183.876v56.422h183.876v-56.422z" />
<glyph unicode="&#xe96d;" glyph-name="cwrc-iconography_event-type2" d="M758.784 725.811v84.787h-174.012v-84.787h-165.171v84.787h-173.978v-84.787h-84.719v-640.41h682.667v640.41h-84.787zM754.347 551.799v-377.139h-504.218v377.139h504.218z" />
<glyph unicode="&#xe96e;" glyph-name="cwrc-iconography_annotation2" d="M723.627 624.981l-33.826 33.792c-4.642 4.676-12.083 4.779-16.521 0.341-0.375-0.375-0.546-0.819-0.785-1.195l-0.239 0.205-16.213-16.213-90.18-89.19 50.654-50.688 90.18 89.19 16.247 16.247-0.205 0.205c0.41 0.307 0.819 0.444 1.195 0.819 4.471 4.369 4.301 11.844-0.307 16.486zM553.916 540.911l-4.233-29.559-4.164-29.525 59.051 8.397-50.654 50.688zM504.525 589.995h-210.603v-56.388h210.603v56.388zM387.584 440.047h-93.662v-56.388h93.662v56.388zM730.078 440.047h-287.471v-56.388h287.471v56.388zM730.010 290.065h-93.662v-56.388h93.662v56.388zM581.393 290.065h-287.471v-56.388h287.471v56.388z" />
<glyph unicode="&#xe96f;" glyph-name="cwrc-iconography_checked2" d="M512 789.333c-188.518 0-341.333-152.781-341.333-341.333 0-188.518 152.815-341.333 341.333-341.333s341.333 152.815 341.333 341.333c0 188.553-152.815 341.333-341.333 341.333zM687.343 565.316l-232.96-284.501-116.941 131.857c-12.049 13.551-9.421 33.382 5.837 44.032 15.292 10.752 37.444 8.431 49.527-5.12l59.29-66.901 178.278 217.566c11.469 13.961 33.519 17.135 49.254 6.929 15.735-10.24 19.183-29.867 7.714-43.861z" />
<glyph unicode="&#xe970;" glyph-name="cwrc-iconography_peer-reviewed2" d="M391.612 421.99c4.779 2.185 10.923 5.018 16.759 7.953-2.253 3.721-4.437 7.817-6.349 12.254-3.413 7.817-6.007 15.77-8.26 23.757-23.996 11.093-48.811 22.46-54.886 43.179-0.478 9.933 1.707 18.159 10.65 25.941 11.435 9.899 14.95 25.225 16.725 40.141 2.355 19.593 1.468 38.878-5.837 57.446-8.704 22.050-25.361 34.099-47.787 34.679-23.211 0.512-40.858-10.172-49.869-32.324-11.469-28.194-11.844-57.105 0.273-85.129 3.686-8.533 11.537-15.258 17.306-22.938 1.399-1.98 2.97-4.335 2.97-6.554-0.034-5.154-0.102-9.148-0.512-12.356-13.483-40.175-98.236-44.681-104.653-83.285-1.536-9.25-6.793-38.332-13.175-73.25 10.274-26.726 23.245-52.053 39.083-75.401l14.848 64.751c0 0 7.782 27.614 10.718-0.171 0.922-8.602-0.956-50.79-3.277-94.106 14.848-17.783 31.3-34.27 49.186-49.015 10.923 59.733 21.572 117.931 23.996 132.471 8.943 53.385 56.969 75.674 92.092 91.955zM845.824 424.721c-6.519 39.014-92.911 43.179-105.097 84.446-0.478 9.933 1.741 18.159 10.684 25.941 11.435 9.899 14.95 25.225 16.691 40.141 2.355 19.593 1.468 38.878-5.803 57.446-8.738 22.050-25.361 34.099-47.787 34.679-23.279 0.546-40.823-10.138-49.869-32.29-11.503-28.194-11.878-57.105 0.273-85.129 3.686-8.533 11.537-15.258 17.306-22.938 1.399-1.98 3.004-4.335 2.97-6.554-0.034-5.154-0.137-9.148-0.546-12.356-6.588-19.729-30.379-30.822-53.623-41.609-2.526-11.127-6.656-24.098-14.336-37.069 5.461-2.697 11.127-5.325 15.599-7.407 35.089-16.247 83.217-38.502 92.126-91.955 2.389-14.507 13.005-72.602 23.962-132.471 17.92 14.78 34.372 31.232 49.254 49.050-2.321 43.349-4.233 85.504-3.311 94.106 2.97 27.75 10.718 0.171 10.718 0.171l14.848-64.751c15.872 23.347 28.809 48.674 39.083 75.401-6.349 34.816-11.605 63.898-13.141 73.148zM544.256 418.202c-0.58 11.571 1.98 21.094 12.39 30.071 13.278 11.537 17.306 29.286 19.388 46.592 2.697 22.699 1.741 45.090-6.758 66.628-10.103 25.566-29.389 39.561-55.501 40.209-26.931 0.649-47.343-11.742-57.822-37.478-13.346-32.7-13.722-66.219 0.341-98.748 4.267-9.967 13.414-17.749 20.070-26.658 1.638-2.219 3.482-4.983 3.413-7.578 0-6.042-0.102-10.65-0.58-14.37-15.633-46.626-113.937-51.849-121.446-96.666-2.833-16.93-16.316-90.897-28.843-159.13 17.783-10.103 36.557-18.603 56.047-25.634l20.070 87.45c0 0 9.045 32.017 12.425-0.205 0.99-9.114-0.751-50.995-3.14-96.597 31.164-8.431 63.761-13.38 97.621-13.38s66.492 4.949 97.655 13.38c-2.355 45.602-4.164 87.484-3.174 96.597 3.482 32.222 12.459 0.205 12.459 0.205l20.036-87.45c19.456 7.066 38.229 15.565 56.047 25.668-12.527 68.233-26.010 142.199-28.843 159.13-7.509 45.261-107.725 50.108-121.856 97.963z" />
<glyph unicode="&#xe971;" glyph-name="cwrc-iconography_unchecked2" d="M512 721.067c150.562 0 273.067-122.505 273.067-273.067s-122.505-273.067-273.067-273.067-273.067 122.505-273.067 273.067 122.505 273.067 273.067 273.067zM512 789.333c-188.518 0-341.333-152.815-341.333-341.333s152.815-341.333 341.333-341.333 341.333 152.815 341.333 341.333-152.815 341.333-341.333 341.333v0z" />
<glyph unicode="&#xe972;" d="M485.097 476.877c-21.597 0-43.064-9.384-57.754-27.425-26.028-31.856-21.299-78.755 10.557-104.727 13.815-11.338 30.534-16.794 47.048-16.794 21.597 0 43.045 9.309 57.754 27.35 26.028 31.856 21.318 78.755-10.538 104.783-13.833 11.283-30.571 16.812-47.067 16.812zM536.092 403.763c0-6.87-5.585-12.456-12.456-12.456h-23.999v-24.017c0-6.87-5.567-12.456-12.437-12.456s-12.437 5.585-12.437 12.456v24.017h-24.017c-6.87 0-12.437 5.585-12.437 12.456s5.567 12.456 12.437 12.456h24.017v23.999c0 6.87 5.567 12.437 12.437 12.437s12.437-5.567 12.437-12.437v-23.999h23.999c6.87 0 12.456-5.585 12.456-12.456z" />
<glyph unicode="&#xe973;" d="M499.638 416.219v23.999c0 6.87-5.567 12.437-12.437 12.437s-12.437-5.567-12.437-12.437v-23.999h-24.017c-6.87 0-12.437-5.585-12.437-12.456s5.567-12.456 12.437-12.456h24.017v-24.017c0-6.87 5.567-12.456 12.437-12.456s12.437 5.585 12.437 12.456v24.017h23.999c6.87 0 12.456 5.585 12.456 12.456s-5.585 12.456-12.456 12.456h-23.999z" />
<glyph unicode="&#xe974;" glyph-name="home3" d="M1024 352l-192 192v288h-128v-160l-192 192-512-512v-32h128v-320h320v192h128v-192h320v320h128z" />
<glyph unicode="&#xe975;" glyph-name="newspaper" d="M896 704v128h-896v-704c0-35.346 28.654-64 64-64h864c53.022 0 96 42.978 96 96v544h-128zM832 128h-768v640h768v-640zM128 640h640v-64h-640zM512 512h256v-64h-256zM512 384h256v-64h-256zM512 256h192v-64h-192zM128 512h320v-320h-320z" />
<glyph unicode="&#xe976;" glyph-name="pencil2" d="M384 320l128 64 448 448-64 64-448-448-64-128zM289.3 92.902c-31.632 66.728-65.666 100.762-132.396 132.394l99.096 272.792 128 77.912 384 384h-192l-384-384-192-640 640 192 384 384v192l-384-384-77.912-128z" />
<glyph unicode="&#xe977;" glyph-name="file-text" d="M864 960h-768c-52.8 0-96-43.2-96-96v-832c0-52.8 43.2-96 96-96h768c52.8 0 96 43.2 96 96v832c0 52.8-43.2 96-96 96zM832 64h-704v768h704v-768zM256 512h448v-64h-448zM256 384h448v-64h-448zM256 256h448v-64h-448zM256 640h448v-64h-448z" />
<glyph unicode="&#xe978;" glyph-name="folder-minus" d="M576 704l-128 128h-448v-832h1024v704h-448zM704 256h-384v128h384v-128z" />
<glyph unicode="&#xe979;" glyph-name="pushpin" d="M544 960l-96-96 96-96-224-256h-224l176-176-272-360.616v-39.384h39.384l360.616 272 176-176v224l256 224 96-96 96 96-480 480zM448 416l-64 64 224 224 64-64-224-224z" />
<glyph unicode="&#xe97a;" glyph-name="history" horiz-adv-x="1088" d="M640 896c247.424 0 448-200.576 448-448s-200.576-448-448-448v96c94.024 0 182.418 36.614 248.902 103.098s103.098 154.878 103.098 248.902c0 94.022-36.614 182.418-103.098 248.902s-154.878 103.098-248.902 103.098c-94.022 0-182.418-36.614-248.902-103.098-51.14-51.138-84.582-115.246-97.306-184.902h186.208l-224-256-224 256h164.57c31.060 217.102 217.738 384 443.43 384zM832 512v-128h-256v320h128v-192z" />
<glyph unicode="&#xe97b;" glyph-name="clock2" d="M512 960c-282.77 0-512-229.23-512-512s229.23-512 512-512 512 229.23 512 512-229.23 512-512 512zM658.744 210.744l-210.744 210.746v282.51h128v-229.49l173.256-173.254-90.512-90.512z" />
<glyph unicode="&#xe97c;" glyph-name="bell" d="M1025.5 160c0 288-256 224-256 448 0 18.56-1.788 34.42-5.048 47.928-16.83 113.018-92.156 203.72-189.772 231.36 0.866 3.948 1.32 8.032 1.32 12.21 0 33.278-28.8 60.502-64 60.502s-64-27.224-64-60.5c0-4.18 0.456-8.264 1.32-12.21-109.47-30.998-190.914-141.298-193.254-273.442-0.040-1.92-0.066-3.864-0.066-5.846 0-224.002-256-160.002-256-448.002 0-76.226 170.59-139.996 398.97-156.080 21.524-40.404 64.056-67.92 113.030-67.92s91.508 27.516 113.030 67.92c228.38 16.084 398.97 79.854 398.97 156.080 0 0.228-0.026 0.456-0.028 0.682l1.528-0.682zM826.246 105.904c-54.23-14.47-118.158-24.876-186.768-30.648-5.704 65.418-60.582 116.744-127.478 116.744s-121.774-51.326-127.478-116.744c-68.608 5.772-132.538 16.178-186.768 30.648-74.63 19.914-110.31 42.19-123.368 54.096 13.058 11.906 48.738 34.182 123.368 54.096 86.772 23.152 198.372 35.904 314.246 35.904s227.474-12.752 314.246-35.904c74.63-19.914 110.31-42.19 123.368-54.096-13.058-11.906-48.738-34.182-123.368-54.096z" />
<glyph unicode="&#xe97d;" glyph-name="calendar" d="M320 576h128v-128h-128zM512 576h128v-128h-128zM704 576h128v-128h-128zM128 192h128v-128h-128zM320 192h128v-128h-128zM512 192h128v-128h-128zM320 384h128v-128h-128zM512 384h128v-128h-128zM704 384h128v-128h-128zM128 384h128v-128h-128zM832 960v-64h-128v64h-448v-64h-128v64h-128v-1024h960v1024h-128zM896 0h-832v704h832v-704z" />
<glyph unicode="&#xe97e;" glyph-name="floppy-disk" d="M896 960h-896v-1024h1024v896l-128 128zM512 832h128v-256h-128v256zM896 64h-768v768h64v-320h576v320h74.978l53.022-53.018v-714.982z" />
<glyph unicode="&#xe97f;" glyph-name="bubble" d="M512 896c282.77 0 512-186.25 512-416 0-229.752-229.23-416-512-416-27.156 0-53.81 1.734-79.824 5.044-109.978-109.978-241.25-129.7-368.176-132.596v26.916c68.536 33.578 128 94.74 128 164.636 0 9.754-0.758 19.33-2.164 28.696-115.796 76.264-189.836 192.754-189.836 323.304 0 229.75 229.23 416 512 416z" />
<glyph unicode="&#xe980;" glyph-name="user-plus" d="M384 224c0 151.234 95.874 280.486 230.032 330.2 16.28 36.538 25.968 77.164 25.968 117.8 0 159.058 0 288-192 288s-192-128.942-192-288c0-99.060 57.502-198.104 128-237.832v-52.78c-217.102-17.748-384-124.42-384-253.388h397.306c-8.664 30.53-13.306 62.732-13.306 96zM736 512c-159.058 0-288-128.942-288-288s128.942-288 288-288c159.056 0 288 128.942 288 288s-128.942 288-288 288zM896 192h-128v-128h-64v128h-128v64h128v128h64v-128h128v-64z" />
<glyph unicode="&#xe981;" glyph-name="user-minus" d="M384 224c0 151.234 95.874 280.486 230.032 330.2 16.28 36.538 25.968 77.164 25.968 117.8 0 159.058 0 288-192 288s-192-128.942-192-288c0-99.060 57.502-198.104 128-237.832v-52.78c-217.102-17.748-384-124.42-384-253.388h397.306c-8.664 30.53-13.306 62.732-13.306 96zM736 512c-159.058 0-288-128.942-288-288s128.942-288 288-288c159.056 0 288 128.942 288 288s-128.942 288-288 288zM896 192h-320v64h320v-64z" />
<glyph unicode="&#xe982;" glyph-name="user-check" d="M960 352l-288-288-96 96-64-64 160-160 352 352zM448 192h320v115.128c-67.22 39.2-156.308 66.11-256 74.26v52.78c70.498 39.728 128 138.772 128 237.832 0 159.058 0 288-192 288s-192-128.942-192-288c0-99.060 57.502-198.104 128-237.832v-52.78c-217.102-17.748-384-124.42-384-253.388h448v64z" />
<glyph unicode="&#xe983;" glyph-name="wrench" d="M1002.934 142.124l-460.552 394.76c21.448 40.298 33.618 86.282 33.618 135.116 0 159.058-128.942 288-288 288-29.094 0-57.172-4.332-83.646-12.354l166.39-166.39c24.89-24.89 24.89-65.62 0-90.51l-101.49-101.49c-24.89-24.89-65.62-24.89-90.51 0l-166.39 166.39c-8.022-26.474-12.354-54.552-12.354-83.646 0-159.058 128.942-288 288-288 48.834 0 94.818 12.17 135.116 33.62l394.76-460.552c22.908-26.724 62.016-28.226 86.904-3.338l101.492 101.492c24.888 24.888 23.386 63.994-3.338 86.902z" />
<glyph unicode="&#xe984;" glyph-name="cog" d="M933.79 349.75c-53.726 93.054-21.416 212.304 72.152 266.488l-100.626 174.292c-28.75-16.854-62.176-26.518-97.846-26.518-107.536 0-194.708 87.746-194.708 195.99h-201.258c0.266-33.41-8.074-67.282-25.958-98.252-53.724-93.056-173.156-124.702-266.862-70.758l-100.624-174.292c28.97-16.472 54.050-40.588 71.886-71.478 53.638-92.908 21.512-211.92-71.708-266.224l100.626-174.292c28.65 16.696 61.916 26.254 97.4 26.254 107.196 0 194.144-87.192 194.7-194.958h201.254c-0.086 33.074 8.272 66.57 25.966 97.218 53.636 92.906 172.776 124.594 266.414 71.012l100.626 174.29c-28.78 16.466-53.692 40.498-71.434 71.228zM512 240.668c-114.508 0-207.336 92.824-207.336 207.334 0 114.508 92.826 207.334 207.336 207.334 114.508 0 207.332-92.826 207.332-207.334-0.002-114.51-92.824-207.334-207.332-207.334z" />
<glyph unicode="&#xe985;" glyph-name="cloud-download" d="M891.004 599.94c-3.242 128.698-108.458 232.060-237.862 232.060-75.792 0-143.266-35.494-186.854-90.732-24.442 31.598-62.69 51.96-105.708 51.96-73.81 0-133.642-59.876-133.642-133.722 0-6.436 0.48-12.76 1.364-18.954-11.222 2.024-22.766 3.138-34.57 3.138-106.998 0.002-193.732-86.786-193.732-193.842 0-107.062 86.734-193.848 193.73-193.848h91.76l226.51-234.51 226.51 234.51 111.482 0.012c96.138 0.184 174.008 78.21 174.008 174.446 0 82.090-56.678 150.9-132.996 169.482zM512 128l-192 192h128v192h128v-192h128l-192-192z" />
<glyph unicode="&#xe986;" glyph-name="cloud-upload" d="M892.268 573.51c2.444 11.11 3.732 22.648 3.732 34.49 0 88.366-71.634 160-160 160-14.222 0-28.014-1.868-41.132-5.352-24.798 77.352-97.29 133.352-182.868 133.352-87.348 0-161.054-58.336-184.326-138.17-22.742 6.622-46.792 10.17-71.674 10.17-141.384 0-256-114.616-256-256 0-141.388 114.616-256 256-256h128v-192h256v192h224c88.366 0 160 71.632 160 160 0 78.72-56.854 144.162-131.732 157.51zM576 320v-192h-128v192h-160l224 224 224-224h-160z" />
<glyph unicode="&#xe987;" glyph-name="earth" d="M512 960c-282.77 0-512-229.23-512-512s229.23-512 512-512 512 229.23 512 512-229.23 512-512 512zM512-0.002c-62.958 0-122.872 13.012-177.23 36.452l233.148 262.29c5.206 5.858 8.082 13.422 8.082 21.26v96c0 17.674-14.326 32-32 32-112.99 0-232.204 117.462-233.374 118.626-6 6.002-14.14 9.374-22.626 9.374h-128c-17.672 0-32-14.328-32-32v-192c0-12.122 6.848-23.202 17.69-28.622l110.31-55.156v-187.886c-116.052 80.956-192 215.432-192 367.664 0 68.714 15.49 133.806 43.138 192h116.862c8.488 0 16.626 3.372 22.628 9.372l128 128c6 6.002 9.372 14.14 9.372 22.628v77.412c40.562 12.074 83.518 18.588 128 18.588 70.406 0 137.004-16.26 196.282-45.2-4.144-3.502-8.176-7.164-12.046-11.036-36.266-36.264-56.236-84.478-56.236-135.764s19.97-99.5 56.236-135.764c36.434-36.432 85.218-56.264 135.634-56.26 3.166 0 6.342 0.080 9.518 0.236 13.814-51.802 38.752-186.656-8.404-372.334-0.444-1.744-0.696-3.488-0.842-5.224-81.324-83.080-194.7-134.656-320.142-134.656z" />
<glyph unicode="&#xe988;" glyph-name="link" d="M440.236 324.234c-13.31 0-26.616 5.076-36.77 15.23-95.134 95.136-95.134 249.934 0 345.070l192 192c46.088 46.086 107.36 71.466 172.534 71.466s126.448-25.38 172.536-71.464c95.132-95.136 95.132-249.934 0-345.070l-87.766-87.766c-20.308-20.308-53.23-20.308-73.54 0-20.306 20.306-20.306 53.232 0 73.54l87.766 87.766c54.584 54.586 54.584 143.404 0 197.99-26.442 26.442-61.6 41.004-98.996 41.004s-72.552-14.562-98.996-41.006l-192-191.998c-54.586-54.586-54.586-143.406 0-197.992 20.308-20.306 20.306-53.232 0-73.54-10.15-10.152-23.462-15.23-36.768-15.23zM256-52c-65.176 0-126.45 25.38-172.534 71.464-95.134 95.136-95.134 249.934 0 345.070l87.764 87.764c20.308 20.306 53.234 20.306 73.54 0 20.308-20.306 20.308-53.232 0-73.54l-87.764-87.764c-54.586-54.586-54.586-143.406 0-197.992 26.44-26.44 61.598-41.002 98.994-41.002s72.552 14.562 98.998 41.006l192 191.998c54.584 54.586 54.584 143.406 0 197.992-20.308 20.308-20.306 53.232 0 73.54 20.306 20.306 53.232 20.306 73.54-0.002 95.132-95.134 95.132-249.932 0.002-345.068l-192.002-192c-46.090-46.088-107.364-71.466-172.538-71.466z" />
<glyph unicode="&#xe989;" glyph-name="flag" d="M0 960h128v-1024h-128v1024zM832 316.998c82.624 0 154.57 19.984 192 49.5v512c-37.43-29.518-109.376-49.502-192-49.502s-154.57 19.984-192 49.502v-512c37.43-29.516 109.376-49.5 192-49.5zM608 927.472c-46.906 19.94-115.52 32.528-192 32.528-96.396 0-180.334-19.984-224-49.502v-512c43.666 29.518 127.604 49.502 224 49.502 76.48 0 145.094-12.588 192-32.528v512z" />
<glyph unicode="&#xe98a;" glyph-name="eye" d="M512 768c-223.318 0-416.882-130.042-512-320 95.118-189.958 288.682-320 512-320 223.312 0 416.876 130.042 512 320-95.116 189.958-288.688 320-512 320zM764.45 598.296c60.162-38.374 111.142-89.774 149.434-150.296-38.292-60.522-89.274-111.922-149.436-150.296-75.594-48.218-162.89-73.704-252.448-73.704-89.56 0-176.858 25.486-252.452 73.704-60.158 38.372-111.138 89.772-149.432 150.296 38.292 60.524 89.274 111.924 149.434 150.296 3.918 2.5 7.876 4.922 11.86 7.3-9.96-27.328-15.41-56.822-15.41-87.596 0-141.382 114.616-256 256-256 141.382 0 256 114.618 256 256 0 30.774-5.452 60.268-15.408 87.598 3.978-2.378 7.938-4.802 11.858-7.302v0zM512 544c0-53.020-42.98-96-96-96s-96 42.98-96 96 42.98 96 96 96 96-42.982 96-96z" />
<glyph unicode="&#xe98b;" glyph-name="blocked" d="M874.040 810.040c-96.706 96.702-225.28 149.96-362.040 149.96s-265.334-53.258-362.040-149.96c-96.702-96.706-149.96-225.28-149.96-362.040s53.258-265.334 149.96-362.040c96.706-96.702 225.28-149.96 362.040-149.96s265.334 53.258 362.040 149.96c96.702 96.706 149.96 225.28 149.96 362.040s-53.258 265.334-149.96 362.040zM896 448c0-82.814-26.354-159.588-71.112-222.38l-535.266 535.268c62.792 44.758 139.564 71.112 222.378 71.112 211.738 0 384-172.262 384-384zM128 448c0 82.814 26.354 159.586 71.112 222.378l535.27-535.268c-62.794-44.756-139.568-71.11-222.382-71.11-211.738 0-384 172.262-384 384z" />
<glyph unicode="&#xe98c;" glyph-name="cross" d="M1014.662 137.34c-0.004 0.004-0.008 0.008-0.012 0.010l-310.644 310.65 310.644 310.65c0.004 0.004 0.008 0.006 0.012 0.010 3.344 3.346 5.762 7.254 7.312 11.416 4.246 11.376 1.824 24.682-7.324 33.83l-146.746 146.746c-9.148 9.146-22.45 11.566-33.828 7.32-4.16-1.55-8.070-3.968-11.418-7.31 0-0.004-0.004-0.006-0.008-0.010l-310.648-310.652-310.648 310.65c-0.004 0.004-0.006 0.006-0.010 0.010-3.346 3.342-7.254 5.76-11.414 7.31-11.38 4.248-24.682 1.826-33.83-7.32l-146.748-146.748c-9.148-9.148-11.568-22.452-7.322-33.828 1.552-4.16 3.97-8.072 7.312-11.416 0.004-0.002 0.006-0.006 0.010-0.010l310.65-310.648-310.65-310.652c-0.002-0.004-0.006-0.006-0.008-0.010-3.342-3.346-5.76-7.254-7.314-11.414-4.248-11.376-1.826-24.682 7.322-33.83l146.748-146.746c9.15-9.148 22.452-11.568 33.83-7.322 4.16 1.552 8.070 3.97 11.416 7.312 0.002 0.004 0.006 0.006 0.010 0.010l310.648 310.65 310.648-310.65c0.004-0.002 0.008-0.006 0.012-0.008 3.348-3.344 7.254-5.762 11.414-7.314 11.378-4.246 24.684-1.826 33.828 7.322l146.746 146.748c9.148 9.148 11.57 22.454 7.324 33.83-1.552 4.16-3.97 8.068-7.314 11.414z" />
<glyph unicode="&#xe98d;" glyph-name="checkmark" d="M864 832l-480-480-224 224-160-160 384-384 640 640z" />
<glyph unicode="&#xe98e;" glyph-name="arrow-up2" d="M877.254 557.254l-320 320c-24.992 24.994-65.514 24.994-90.508 0l-320-320c-24.994-24.994-24.994-65.516 0-90.51 24.994-24.996 65.516-24.996 90.51 0l210.744 210.746v-613.49c0-35.346 28.654-64 64-64s64 28.654 64 64v613.49l210.746-210.746c12.496-12.496 28.876-18.744 45.254-18.744s32.758 6.248 45.254 18.746c24.994 24.994 24.994 65.514 0 90.508z" />
<glyph unicode="&#xe98f;" glyph-name="arrow-right2" d="M621.254 82.746l320 320c24.994 24.992 24.994 65.516 0 90.51l-320 320c-24.994 24.992-65.516 24.992-90.51 0-24.994-24.994-24.994-65.516 0-90.51l210.746-210.746h-613.49c-35.346 0-64-28.654-64-64s28.654-64 64-64h613.49l-210.746-210.746c-12.496-12.496-18.744-28.876-18.744-45.254s6.248-32.758 18.744-45.254c24.994-24.994 65.516-24.994 90.51 0z" />
<glyph unicode="&#xe990;" glyph-name="arrow-down2" d="M877.254 338.746l-320-320c-24.992-24.994-65.514-24.994-90.508 0l-320 320c-24.994 24.994-24.994 65.516 0 90.51 24.994 24.996 65.516 24.996 90.51 0l210.744-210.746v613.49c0 35.346 28.654 64 64 64s64-28.654 64-64v-613.49l210.746 210.746c12.496 12.496 28.876 18.744 45.254 18.744s32.758-6.248 45.254-18.746c24.994-24.994 24.994-65.514 0-90.508z" />
<glyph unicode="&#xe991;" glyph-name="arrow-left2" d="M402.746 82.746l-320 320c-24.994 24.992-24.994 65.516 0 90.51l320 320c24.994 24.992 65.516 24.992 90.51 0 24.994-24.994 24.994-65.516 0-90.51l-210.746-210.746h613.49c35.346 0 64-28.654 64-64s-28.654-64-64-64h-613.49l210.746-210.746c12.496-12.496 18.744-28.876 18.744-45.254s-6.248-32.758-18.744-45.254c-24.994-24.994-65.516-24.994-90.51 0z" />
<glyph unicode="&#xe992;" glyph-name="circle-up" d="M0 448c0-282.77 229.23-512 512-512s512 229.23 512 512-229.23 512-512 512-512-229.23-512-512zM928 448c0-229.75-186.25-416-416-416s-416 186.25-416 416 186.25 416 416 416 416-186.25 416-416zM706.744 290.744l90.512 90.512-285.256 285.254-285.254-285.256 90.508-90.508 194.746 194.744z" />
<glyph unicode="&#xe993;" glyph-name="circle-right" d="M512 960c-282.77 0-512-229.23-512-512s229.23-512 512-512 512 229.23 512 512-229.23 512-512 512zM512 32c-229.75 0-416 186.25-416 416s186.25 416 416 416 416-186.25 416-416-186.25-416-416-416zM354.744 253.256l90.512-90.512 285.254 285.256-285.256 285.254-90.508-90.508 194.744-194.746z" />
<glyph unicode="&#xe994;" glyph-name="circle-down" d="M1024 448c0 282.77-229.23 512-512 512s-512-229.23-512-512 229.23-512 512-512 512 229.23 512 512zM96 448c0 229.75 186.25 416 416 416s416-186.25 416-416-186.25-416-416-416-416 186.25-416 416zM317.256 605.256l-90.512-90.512 285.256-285.254 285.254 285.256-90.508 90.508-194.746-194.744z" />
<glyph unicode="&#xe995;" glyph-name="circle-left" d="M512-64c282.77 0 512 229.23 512 512s-229.23 512-512 512-512-229.23-512-512 229.23-512 512-512zM512 864c229.75 0 416-186.25 416-416s-186.25-416-416-416-416 186.25-416 416 186.25 416 416 416zM669.256 642.744l-90.512 90.512-285.254-285.256 285.256-285.254 90.508 90.508-194.744 194.746z" />
<glyph unicode="&#xe9cf;" glyph-name="paste" d="M704 832h-128v64c0 35.2-28.8 64-64 64h-128c-35.204 0-64-28.8-64-64v-64h-128v-128h512v128zM512 832h-128v63.886c0.034 0.038 0.072 0.078 0.114 0.114h127.768c0.042-0.036 0.082-0.076 0.118-0.114v-63.886zM832 640v160c0 17.6-14.4 32-32 32h-64v-64h32v-128h-192l-192-192v-256h-256v576h32v64h-64c-17.602 0-32-14.4-32-32v-640c0-17.6 14.398-32 32-32h288v-192h640v704h-192zM576 549.49v-101.49h-101.49l101.49 101.49zM960 0h-512v384h192v192h320v-576z" />
<glyph unicode="&#xea8b;" glyph-name="google-plus" d="M325.8 502.6v-111.8h184.8c-7.4-48-55.8-140.6-184.8-140.6-111.2 0-202 92.2-202 205.8s90.8 205.8 202 205.8c63.4 0 105.6-27 129.8-50.2l88.4 85.2c-56.8 53-130.4 85.2-218.2 85.2-180.2-0.2-325.8-145.8-325.8-326s145.6-325.8 325.8-325.8c188 0 312.8 132.2 312.8 318.4 0 21.4-2.4 37.8-5.2 54h-307.6zM1024 512h-96v96h-96v-96h-96v-96h96v-96h96v96h96z" />
<glyph unicode="&#xea90;" glyph-name="facebook" d="M608 768h160v192h-160c-123.514 0-224-100.486-224-224v-96h-128v-192h128v-512h192v512h160l32 192h-192v96c0 17.346 14.654 32 32 32z" />
<glyph unicode="&#xea96;" glyph-name="twitter" d="M1024 733.6c-37.6-16.8-78.2-28-120.6-33 43.4 26 76.6 67.2 92.4 116.2-40.6-24-85.6-41.6-133.4-51-38.4 40.8-93 66.2-153.4 66.2-116 0-210-94-210-210 0-16.4 1.8-32.4 5.4-47.8-174.6 8.8-329.4 92.4-433 219.6-18-31-28.4-67.2-28.4-105.6 0-72.8 37-137.2 93.4-174.8-34.4 1-66.8 10.6-95.2 26.2 0-0.8 0-1.8 0-2.6 0-101.8 72.4-186.8 168.6-206-17.6-4.8-36.2-7.4-55.4-7.4-13.6 0-26.6 1.4-39.6 3.8 26.8-83.4 104.4-144.2 196.2-146-72-56.4-162.4-90-261-90-17 0-33.6 1-50.2 3 93.2-59.8 203.6-94.4 322.2-94.4 386.4 0 597.8 320.2 597.8 597.8 0 9.2-0.2 18.2-0.6 27.2 41 29.4 76.6 66.4 104.8 108.6z" />
</font>
</defs>
</svg>
