<?xml version="1.0" encoding="utf-8"?>
<!-- Generator: Adobe Illustrator 15.0.0, SVG Export Plug-In . SVG Version: 6.00 Build 0)  -->
<!DOCTYPE svg PUBLIC "-//W3C//DTD SVG 1.1//EN" "http://www.w3.org/Graphics/SVG/1.1/DTD/svg11.dtd">
<svg version="1.1" id="Layer_1" xmlns="http://www.w3.org/2000/svg" xmlns:xlink="http://www.w3.org/1999/xlink" x="0px" y="0px"
	 width="28px" height="26px" viewBox="0 0 28 26" enable-background="new 0 0 28 26" xml:space="preserve">
<g id="Search">
	<path fill="#010101" d="M25.154,22.134l-5.553-5.553c-0.029-0.028-0.063-0.051-0.094-0.079c1.092-1.656,1.729-3.641,1.729-5.774
		c0-5.804-4.705-10.508-10.508-10.508c-5.804,0-10.508,4.704-10.508,10.508s4.705,10.508,10.508,10.508
		c2.133,0,4.117-0.638,5.774-1.729c0.028,0.03,0.049,0.064,0.078,0.095l5.553,5.554c0.834,0.833,2.188,0.833,3.021,0
		C25.988,24.321,25.988,22.968,25.154,22.134z M10.729,17.594c-3.792,0-6.866-3.073-6.866-6.866c0-3.792,3.074-6.866,6.866-6.866
		c3.792,0,6.865,3.074,6.865,6.866C17.594,14.521,14.521,17.594,10.729,17.594z"/>
</g>
</svg>
